<svg xmlns="http://www.w3.org/2000/svg" xmlns:xlink="http://www.w3.org/1999/xlink" width="375" viewBox="0 0 375 375" height="375" version="1.0"><defs><clipPath id="d"><path d="M 1 0.121094 L 114 0.121094 L 114 129 L 1 129 Z M 1 0.121094"/></clipPath><clipPath id="e"><path d="M 123.402344 -2.703125 L 124.800781 128.539062 L 1.808594 129.847656 L 0.410156 -1.394531 Z M 123.402344 -2.703125"/></clipPath><clipPath id="f"><path d="M 123.402344 -2.703125 L 124.800781 128.539062 L 1.808594 129.847656 L 0.410156 -1.394531 Z M 123.402344 -2.703125"/></clipPath><clipPath id="c"><path d="M0 0H115V129H0z"/></clipPath><clipPath id="i"><path d="M 1 1 L 115 1 L 115 129 L 1 129 Z M 1 1"/></clipPath><clipPath id="j"><path d="M 123.546875 -2.09375 L 124.941406 129.152344 L 1.949219 130.460938 L 0.550781 -0.78125 Z M 123.546875 -2.09375"/></clipPath><clipPath id="k"><path d="M 123.546875 -2.09375 L 124.941406 129.152344 L 1.949219 130.460938 L 0.550781 -0.78125 Z M 123.546875 -2.09375"/></clipPath><clipPath id="h"><path d="M0 0H116V130H0z"/></clipPath><clipPath id="n"><path d="M 1 1 L 114 1 L 114 129 L 1 129 Z M 1 1"/></clipPath><clipPath id="o"><path d="M 123.203125 -2.046875 L 124.597656 129.195312 L 1.605469 130.507812 L 0.207031 -0.734375 Z M 123.203125 -2.046875"/></clipPath><clipPath id="p"><path d="M 123.203125 -2.046875 L 124.597656 129.195312 L 1.605469 130.507812 L 0.207031 -0.734375 Z M 123.203125 -2.046875"/></clipPath><clipPath id="m"><path d="M0 0H115V130H0z"/></clipPath><clipPath id="s"><path d="M 25 9 L 92 9 L 92 116 L 25 116 Z M 25 9"/></clipPath><clipPath id="t"><path d="M 62.742188 0.753906 L 117.539062 67.359375 L 54.988281 118.824219 L 0.191406 52.21875 Z M 62.742188 0.753906"/></clipPath><clipPath id="u"><path d="M 62.742188 0.753906 L 117.539062 67.359375 L 54.988281 118.824219 L 0.191406 52.21875 Z M 62.742188 0.753906"/></clipPath><clipPath id="r"><path d="M0 0H118V119H0z"/></clipPath><clipPath id="x"><path d="M 4 5 L 131 5 L 131 111 L 4 111 Z M 4 5"/></clipPath><clipPath id="y"><path d="M 129.753906 132.683594 L -1.140625 123.042969 L 7.890625 0.375 L 138.789062 10.015625 Z M 129.753906 132.683594"/></clipPath><clipPath id="z"><path d="M 129.753906 132.683594 L -1.140625 123.042969 L 7.890625 0.375 L 138.789062 10.015625 Z M 129.753906 132.683594"/></clipPath><clipPath id="w"><path d="M0 0H137V111H0z"/></clipPath><clipPath id="C"><path d="M 4 5 L 131 5 L 131 114 L 4 114 Z M 4 5"/></clipPath><clipPath id="D"><path d="M 129.449219 132.289062 L -1.445312 122.652344 L 7.585938 -0.015625 L 138.480469 9.621094 Z M 129.449219 132.289062"/></clipPath><clipPath id="E"><path d="M 129.449219 132.289062 L -1.445312 122.652344 L 7.585938 -0.015625 L 138.480469 9.621094 Z M 129.449219 132.289062"/></clipPath><clipPath id="B"><path d="M0 0H136V114H0z"/></clipPath><clipPath id="H"><path d="M 4 5 L 131 5 L 131 118 L 4 118 Z M 4 5"/></clipPath><clipPath id="I"><path d="M 129.769531 131.957031 L -1.125 122.320312 L 7.90625 -0.347656 L 138.800781 9.289062 Z M 129.769531 131.957031"/></clipPath><clipPath id="J"><path d="M 129.769531 131.957031 L -1.125 122.320312 L 7.90625 -0.347656 L 138.800781 9.289062 Z M 129.769531 131.957031"/></clipPath><clipPath id="G"><path d="M0 0H137V118H0z"/></clipPath><clipPath id="M"><path d="M 3 23 L 110 23 L 110 93 L 3 93 Z M 3 23"/></clipPath><clipPath id="N"><path d="M 117.394531 67.195312 L 46.421875 116.203125 L 0.398438 49.550781 L 71.371094 0.542969 Z M 117.394531 67.195312"/></clipPath><clipPath id="O"><path d="M 117.394531 67.195312 L 46.421875 116.203125 L 0.398438 49.550781 L 71.371094 0.542969 Z M 117.394531 67.195312"/></clipPath><clipPath id="L"><path d="M0 0H118V106H0z"/></clipPath><clipPath id="R"><path d="M 4 5 L 88 5 L 88 120 L 4 120 Z M 4 5"/></clipPath><clipPath id="S"><path d="M 129.476562 132.34375 L -1.417969 122.707031 L 7.613281 0.0390625 L 138.507812 9.675781 Z M 129.476562 132.34375"/></clipPath><clipPath id="T"><path d="M 129.476562 132.34375 L -1.417969 122.707031 L 7.613281 0.0390625 L 138.507812 9.675781 Z M 129.476562 132.34375"/></clipPath><clipPath id="Q"><path d="M0 0H88V123H0z"/></clipPath><clipPath id="W"><path d="M 4 5 L 83 5 L 83 119 L 4 119 Z M 4 5"/></clipPath><clipPath id="X"><path d="M 130.171875 131.953125 L -0.722656 122.316406 L 8.308594 -0.351562 L 139.203125 9.285156 Z M 130.171875 131.953125"/></clipPath><clipPath id="Y"><path d="M 130.171875 131.953125 L -0.722656 122.316406 L 8.308594 -0.351562 L 139.203125 9.285156 Z M 130.171875 131.953125"/></clipPath><clipPath id="V"><path d="M0 0H83V122H0z"/></clipPath><clipPath id="ab"><path d="M 4 5 L 82 5 L 82 120 L 4 120 Z M 4 5"/></clipPath><clipPath id="ac"><path d="M 129.492188 132.621094 L -1.40625 122.984375 L 7.625 0.316406 L 138.523438 9.953125 Z M 129.492188 132.621094"/></clipPath><clipPath id="ad"><path d="M 129.492188 132.621094 L -1.40625 122.984375 L 7.625 0.316406 L 138.523438 9.953125 Z M 129.492188 132.621094"/></clipPath><clipPath id="aa"><path d="M0 0H82V123H0z"/></clipPath><clipPath id="ag"><path d="M 3 23 L 71 23 L 71 93 L 3 93 Z M 3 23"/></clipPath><clipPath id="ah"><path d="M 117.117188 66.859375 L 46.144531 115.867188 L 0.121094 49.210938 L 71.09375 0.207031 Z M 117.117188 66.859375"/></clipPath><clipPath id="ai"><path d="M 117.117188 66.859375 L 46.144531 115.867188 L 0.121094 49.210938 L 71.09375 0.207031 Z M 117.117188 66.859375"/></clipPath><clipPath id="af"><path d="M0 0H71V116H0z"/></clipPath><clipPath id="al"><path d="M 7 0 L 133 0 L 133 83 L 7 83 Z M 7 0"/></clipPath><clipPath id="am"><path d="M 128.109375 98.097656 L -1.996094 80.796875 L 14.214844 -41.128906 L 144.320312 -23.828125 Z M 128.109375 98.097656"/></clipPath><clipPath id="an"><path d="M 128.109375 98.097656 L -1.996094 80.796875 L 14.214844 -41.128906 L 144.320312 -23.828125 Z M 128.109375 98.097656"/></clipPath><clipPath id="ak"><path d="M0 0H142V88H0z"/></clipPath><clipPath id="aq"><path d="M 7 0 L 133 0 L 133 80 L 7 80 Z M 7 0"/></clipPath><clipPath id="ar"><path d="M 127.992188 95.046875 L -2.113281 77.746094 L 14.097656 -44.179688 L 144.203125 -26.882812 Z M 127.992188 95.046875"/></clipPath><clipPath id="as"><path d="M 127.992188 95.046875 L -2.113281 77.746094 L 14.097656 -44.179688 L 144.203125 -26.882812 Z M 127.992188 95.046875"/></clipPath><clipPath id="ap"><path d="M0 0H142V85H0z"/></clipPath><clipPath id="av"><path d="M 7 0 L 133 0 L 133 76 L 7 76 Z M 7 0"/></clipPath><clipPath id="aw"><path d="M 128.566406 90.738281 L -1.539062 73.441406 L 14.671875 -48.484375 L 144.777344 -31.1875 Z M 128.566406 90.738281"/></clipPath><clipPath id="ax"><path d="M 128.566406 90.738281 L -1.539062 73.441406 L 14.671875 -48.484375 L 144.777344 -31.1875 Z M 128.566406 90.738281"/></clipPath><clipPath id="au"><path d="M0 0H142V81H0z"/></clipPath><clipPath id="aA"><path d="M 3 0 L 109 0 L 109 61 L 3 61 Z M 3 0"/></clipPath><clipPath id="aB"><path d="M 116.289062 37.988281 L 42.5625 82.75 L 0.527344 13.507812 L 74.253906 -31.25 Z M 116.289062 37.988281"/></clipPath><clipPath id="aC"><path d="M 116.289062 37.988281 L 42.5625 82.75 L 0.527344 13.507812 L 74.253906 -31.25 Z M 116.289062 37.988281"/></clipPath><clipPath id="az"><path d="M0 0H117V83H0z"/></clipPath><mask id="b"><g filter="url(#a)"><path fill-opacity=".098" d="M-37.5 -37.5H412.5V412.5H-37.5z"/></g></mask><mask id="g"><g filter="url(#a)"><path fill-opacity=".098" d="M-37.5 -37.5H412.5V412.5H-37.5z"/></g></mask><mask id="l"><g filter="url(#a)"><path fill-opacity=".149" d="M-37.5 -37.5H412.5V412.5H-37.5z"/></g></mask><mask id="q"><g filter="url(#a)"><path fill-opacity=".228" d="M-37.5 -37.5H412.5V412.5H-37.5z"/></g></mask><mask id="v"><g filter="url(#a)"><path fill-opacity=".098" d="M-37.5 -37.5H412.5V412.5H-37.5z"/></g></mask><mask id="A"><g filter="url(#a)"><path fill-opacity=".098" d="M-37.5 -37.5H412.5V412.5H-37.5z"/></g></mask><mask id="F"><g filter="url(#a)"><path fill-opacity=".149" d="M-37.5 -37.5H412.5V412.5H-37.5z"/></g></mask><mask id="K"><g filter="url(#a)"><path fill-opacity=".228" d="M-37.5 -37.5H412.5V412.5H-37.5z"/></g></mask><mask id="P"><g filter="url(#a)"><path fill-opacity=".098" d="M-37.5 -37.5H412.5V412.5H-37.5z"/></g></mask><mask id="U"><g filter="url(#a)"><path fill-opacity=".098" d="M-37.5 -37.5H412.5V412.5H-37.5z"/></g></mask><mask id="Z"><g filter="url(#a)"><path fill-opacity=".149" d="M-37.5 -37.5H412.5V412.5H-37.5z"/></g></mask><mask id="ae"><g filter="url(#a)"><path fill-opacity=".228" d="M-37.5 -37.5H412.5V412.5H-37.5z"/></g></mask><mask id="aj"><g filter="url(#a)"><path fill-opacity=".098" d="M-37.5 -37.5H412.5V412.5H-37.5z"/></g></mask><mask id="ao"><g filter="url(#a)"><path fill-opacity=".098" d="M-37.5 -37.5H412.5V412.5H-37.5z"/></g></mask><mask id="at"><g filter="url(#a)"><path fill-opacity=".149" d="M-37.5 -37.5H412.5V412.5H-37.5z"/></g></mask><mask id="ay"><g filter="url(#a)"><path fill-opacity=".228" d="M-37.5 -37.5H412.5V412.5H-37.5z"/></g></mask><filter x="0%" y="0%" width="100%" xlink:type="simple" xlink:actuate="onLoad" height="100%" id="a" xlink:show="other"><feColorMatrix values="0 0 0 0 1 0 0 0 0 1 0 0 0 0 1 0 0 0 1 0" color-interpolation-filters="sRGB"/></filter></defs><path fill="#FFF" d="M-37.5 -37.5H412.5V412.5H-37.5z"/><path fill="#FFF" d="M-37.5 -37.5H412.5V412.5H-37.5z"/><path fill="#224870" d="M-37.5 -37.5H412.5V412.5H-37.5z"/><g mask="url(#b)"><g><g clip-path="url(#c)" transform="translate(186 177)"><g clip-path="url(#d)"><g clip-path="url(#e)"><g clip-path="url(#f)"><path fill="#FFF" d="M 26.707031 96.273438 C 30.3125 116.152344 43.875 126.839844 57.695312 128.105469 C 68.886719 129.128906 80.253906 123.96875 86.632812 112.5 C 89.246094 107.800781 90.445312 102.496094 91.488281 96.90625 C 94.902344 78.652344 93.9375 79.671875 105.742188 66.378906 C 123.917969 45.90625 109.617188 9.339844 83.757812 2.171875 C 68.332031 -2.105469 49.203125 2.152344 34.492188 26.496094 C 25.289062 41.722656 3.121094 36.253906 1.53125 57.160156 C 1.09375 62.929688 2.785156 68.980469 6.78125 73 C 13.308594 79.550781 24 81.320312 26.707031 96.273438" fill-rule="evenodd"/></g></g></g></g></g></g><g mask="url(#g)"><g><g clip-path="url(#h)" transform="translate(182 171)"><g clip-path="url(#i)"><g clip-path="url(#j)"><g clip-path="url(#k)"><path fill="#FFF" d="M 26.851562 96.882812 C 30.453125 116.761719 44.015625 127.453125 57.835938 128.714844 C 69.03125 129.738281 80.394531 124.578125 86.773438 113.113281 C 89.386719 108.410156 90.585938 103.105469 91.628906 97.519531 C 95.042969 79.265625 94.078125 80.285156 105.882812 66.988281 C 124.0625 46.519531 109.761719 9.949219 83.898438 2.78125 C 68.472656 -1.492188 49.347656 2.761719 34.636719 27.105469 C 25.433594 42.332031 3.261719 36.867188 1.675781 57.773438 C 1.234375 63.542969 2.925781 69.59375 6.925781 73.609375 C 13.449219 80.164062 24.140625 81.933594 26.851562 96.882812" fill-rule="evenodd"/></g></g></g></g></g></g><g mask="url(#l)"><g><g clip-path="url(#m)" transform="translate(178 171)"><g clip-path="url(#n)"><g clip-path="url(#o)"><g clip-path="url(#p)"><path fill="#FFF" d="M 26.507812 96.929688 C 30.109375 116.808594 43.671875 127.496094 57.492188 128.761719 C 68.6875 129.785156 80.050781 124.625 86.429688 113.15625 C 89.042969 108.457031 90.242188 103.152344 91.285156 97.566406 C 94.699219 79.308594 93.734375 80.332031 105.539062 67.035156 C 123.71875 46.5625 109.417969 9.996094 83.554688 2.828125 C 68.128906 -1.449219 49.003906 2.808594 34.292969 27.152344 C 25.089844 42.378906 2.917969 36.914062 1.332031 57.820312 C 0.890625 63.589844 2.582031 69.636719 6.582031 73.65625 C 13.105469 80.207031 23.796875 81.980469 26.507812 96.929688" fill-rule="evenodd"/></g></g></g></g></g></g><g mask="url(#q)"><g><g clip-path="url(#r)" transform="translate(186 174)"><g clip-path="url(#s)"><g clip-path="url(#t)"><g clip-path="url(#u)"><path fill="#FFF" d="M 48.398438 110.582031 C 46.480469 108.113281 44.585938 105.601562 42.632812 103.160156 C 40.75 100.835938 38.761719 98.59375 36.859375 96.28125 C 35.640625 94.796875 34.554688 93.203125 33.214844 91.785156 C 31.40625 89.824219 29.699219 87.746094 28.121094 85.59375 C 26.777344 83.785156 25.925781 81.683594 25.628906 79.46875 C 25.203125 76.058594 25.289062 72.617188 25.878906 69.246094 C 26.128906 67.65625 26.300781 66.042969 26.382812 64.421875 C 26.511719 61.65625 27.101562 58.933594 28.113281 56.375 C 28.917969 54.328125 29.707031 52.261719 30.394531 50.171875 C 30.828125 48.878906 31.144531 47.542969 31.355469 46.183594 C 31.84375 42.921875 32.792969 39.738281 34.140625 36.734375 C 35.261719 34.28125 36.046875 31.65625 36.429688 28.996094 C 36.765625 26.03125 38.152344 23.589844 40.027344 21.394531 C 41.550781 19.601562 43.046875 17.808594 44.6875 16.089844 C 46.78125 13.886719 49.226562 12.074219 51.960938 10.757812 C 53.996094 9.789062 56.246094 9.464844 58.476562 9.835938 C 64.128906 10.617188 69.4375 13.011719 73.777344 16.738281 C 76.15625 18.773438 78.523438 20.785156 80.734375 22.957031 C 82.226562 24.5 83.621094 26.15625 84.878906 27.890625 C 86.558594 30.074219 88.183594 32.359375 89.058594 35.003906 C 90.058594 37.972656 90.914062 40.972656 91.738281 44.003906 C 91.933594 44.859375 92 45.765625 91.929688 46.644531 C 91.875 48.332031 91.773438 50.03125 91.605469 51.722656 C 91.308594 54.765625 90.855469 57.828125 89.648438 60.660156 C 88.621094 63.261719 86.554688 65.324219 83.96875 66.378906 C 83.210938 66.691406 82.566406 67.21875 82.113281 67.90625 C 81.289062 69.035156 80.304688 70.042969 79.167969 70.894531 C 78.1875 71.730469 77.347656 72.707031 76.636719 73.769531 C 74.105469 77.4375 71.75 81.210938 70.128906 85.433594 C 68.386719 89.949219 66.882812 94.554688 65.453125 99.183594 C 64.636719 101.804688 63.734375 104.386719 62.933594 107.023438 C 62.617188 108.050781 62.4375 109.101562 62.195312 110.152344 C 61.890625 111.503906 61.242188 112.742188 60.335938 113.773438 C 58.425781 115.996094 55.171875 116.4375 52.734375 114.851562 C 51.066406 113.648438 49.589844 112.234375 48.398438 110.582031 Z M 81.429688 67.761719 C 81.871094 66.890625 82.621094 66.214844 83.507812 65.851562 C 86.167969 64.851562 88.238281 62.726562 89.183594 60.023438 C 89.863281 58.164062 90.34375 56.238281 90.597656 54.277344 C 90.96875 51.425781 91.109375 48.539062 91.3125 45.652344 C 91.324219 45.21875 91.289062 44.765625 91.164062 44.335938 C 90.414062 41.019531 89.410156 37.769531 88.167969 34.605469 C 87.246094 32.28125 85.828125 30.25 84.308594 28.300781 C 83.078125 26.601562 81.714844 24.976562 80.25 23.4375 C 78.199219 21.390625 75.957031 19.558594 73.785156 17.609375 C 69.957031 14.226562 65.28125 11.847656 60.234375 10.769531 C 57.394531 10.105469 54.554688 10.125 51.855469 11.523438 C 49.777344 12.609375 47.84375 13.972656 46.117188 15.589844 C 43.800781 17.726562 41.851562 20.207031 39.855469 22.667969 C 38.398438 24.40625 37.429688 26.53125 37.121094 28.765625 C 36.683594 31.671875 35.847656 34.511719 34.625 37.1875 C 33.265625 40.144531 32.367188 43.285156 31.949219 46.488281 C 31.871094 46.945312 31.796875 47.40625 31.691406 47.859375 C 31.015625 50.621094 30.105469 53.292969 28.964844 55.902344 C 27.9375 58.332031 27.28125 60.90625 27.058594 63.523438 C 26.828125 66.0625 26.519531 68.578125 26.242188 71.128906 C 25.902344 73.953125 25.917969 76.824219 26.292969 79.65625 C 26.664062 82.40625 28.042969 84.636719 29.738281 86.695312 C 31.320312 88.617188 32.988281 90.472656 34.585938 92.382812 C 36.75 95.015625 38.851562 97.671875 41.050781 100.273438 C 43.570312 103.265625 46.019531 106.3125 48.316406 109.519531 C 49.558594 111.269531 51.085938 112.8125 52.820312 114.101562 C 55.5 116.082031 58.410156 114.90625 59.960938 113.179688 C 60.96875 112.066406 61.382812 110.675781 61.757812 109.238281 C 62.308594 107.089844 62.886719 104.972656 63.527344 102.859375 C 64.433594 99.9375 65.351562 97.03125 66.332031 94.128906 C 68.320312 88.222656 70.191406 82.242188 73.746094 76.996094 C 75.140625 74.945312 76.546875 72.9375 77.996094 70.953125 C 78.820312 69.851562 79.738281 68.871094 80.585938 67.804688 C 80.886719 67.445312 81.101562 67.464844 81.429688 67.761719 Z M 82.492188 60.210938 C 81.023438 61.421875 79.304688 62.152344 77.65625 63.003906 C 71.476562 66.191406 65.941406 70.261719 61.605469 75.726562 C 60.117188 77.597656 58.910156 79.671875 58.621094 82.140625 C 58.542969 82.769531 58.542969 83.421875 58.574219 84.046875 C 58.664062 85.839844 58.519531 87.65625 58.144531 89.40625 C 57.816406 90.894531 57.089844 92.285156 56.0625 93.441406 C 55.636719 93.992188 55.007812 94.363281 54.3125 94.484375 C 53.597656 94.648438 52.878906 94.703125 52.136719 94.691406 C 46.800781 94.46875 41.660156 92.757812 37.25 89.738281 C 35.695312 88.640625 34.394531 87.195312 33.488281 85.507812 C 32.386719 83.554688 31.144531 81.664062 30.613281 79.46875 C 29.886719 76.558594 29.304688 73.613281 29.644531 70.589844 C 30.101562 66.878906 31.398438 63.292969 33.414062 60.136719 C 36.03125 55.886719 38.574219 51.585938 41.136719 47.300781 C 42.394531 45.050781 43.109375 42.511719 43.1875 39.925781 C 43.367188 37.320312 43.691406 34.761719 43.976562 32.179688 C 44.164062 30.414062 44.304688 28.625 44.585938 26.867188 C 44.78125 25.800781 45.101562 24.777344 45.492188 23.773438 C 45.882812 22.632812 46.804688 21.757812 47.957031 21.4375 C 48.675781 21.210938 49.367188 20.953125 50.109375 20.824219 C 52.363281 20.328125 54.597656 19.84375 56.875 19.445312 C 60.902344 18.734375 64.636719 19.453125 68.050781 21.820312 C 71.234375 24.066406 74.296875 26.414062 76.898438 29.335938 C 79.664062 32.492188 81.605469 36.296875 82.542969 40.394531 C 83.339844 43.699219 84.050781 47.046875 84.785156 50.375 C 85.132812 51.898438 85.257812 53.464844 85.152344 55.023438 C 85.128906 55.4375 85.273438 55.855469 85.203125 56.285156 C 85.1875 56.75 85.0625 57.21875 84.824219 57.613281 C 84.144531 58.539062 83.363281 59.382812 82.636719 60.289062 Z M 76.742188 30.144531 C 74.078125 27.046875 70.734375 24.390625 67.121094 21.992188 C 64.570312 20.269531 61.492188 19.519531 58.429688 19.890625 C 55.132812 20.285156 51.851562 20.945312 48.660156 21.847656 C 47.246094 22.191406 46.160156 23.28125 45.808594 24.671875 C 45.292969 26.316406 44.9375 28.019531 44.800781 29.746094 C 44.617188 31.792969 44.417969 33.851562 44.21875 35.914062 C 44.09375 37.175781 43.878906 38.425781 43.851562 39.664062 C 43.800781 42.59375 42.972656 45.480469 41.488281 48.003906 C 38.855469 52.375 36.195312 56.742188 33.597656 61.117188 C 31.589844 64.492188 30.246094 68.085938 30.234375 72.058594 C 30.148438 76.257812 31.238281 80.398438 33.351562 84.035156 C 34.671875 86.257812 36.085938 88.320312 38.324219 89.703125 C 41.628906 91.792969 45.34375 93.179688 49.230469 93.742188 C 50.628906 93.925781 52.015625 93.996094 53.429688 93.996094 C 54.1875 94.019531 54.929688 93.722656 55.449219 93.179688 C 56.316406 92.273438 56.949219 91.183594 57.328125 89.996094 C 57.867188 88.105469 58.0625 86.140625 57.925781 84.183594 C 57.800781 82.28125 58.1875 80.375 59.039062 78.660156 C 60.292969 75.984375 62.230469 73.769531 64.304688 71.75 C 68.269531 67.867188 72.820312 64.660156 77.808594 62.226562 C 79.597656 61.375 81.390625 60.523438 82.800781 59.109375 C 83.800781 58.089844 84.910156 57.0625 84.433594 55.386719 C 84.414062 55.292969 84.425781 55.167969 84.433594 55.078125 C 84.554688 53.535156 84.4375 52.019531 84.101562 50.511719 C 83.394531 47.246094 82.691406 43.980469 81.90625 40.71875 C 81.027344 36.832031 79.269531 33.214844 76.742188 30.144531 Z M 78.660156 68.59375 C 78.730469 68.679688 78.917969 68.667969 79.074219 68.683594 C 79.085938 68.527344 79.167969 68.347656 79.132812 68.238281 C 79.082031 68.109375 78.875 68.164062 78.648438 68.097656 C 78.644531 68.296875 78.59375 68.511719 78.660156 68.59375 Z M 38.113281 80.878906 C 36.265625 78.328125 34.972656 75.65625 35.109375 72.515625 C 35.191406 71.34375 35.441406 70.207031 35.84375 69.109375 C 36.734375 66.652344 37.953125 64.347656 39.480469 62.214844 C 41.867188 58.753906 43.890625 55.019531 45.496094 51.125 C 45.84375 50.273438 46.195312 49.394531 46.628906 48.582031 C 48.070312 45.925781 48.691406 43.039062 49.136719 40.070312 C 49.445312 38.035156 49.875 36.011719 50.347656 34.007812 C 50.714844 32.320312 51.726562 30.867188 53.152344 29.917969 C 54.894531 28.769531 56.777344 28.097656 58.898438 28.445312 C 61.5625 28.855469 64.125 29.464844 66.394531 31.050781 C 67.972656 32.210938 69.269531 33.6875 70.238281 35.382812 C 71.921875 38.183594 73.179688 41.222656 73.984375 44.40625 C 74.292969 45.570312 74.710938 46.695312 74.980469 47.886719 C 75.320312 49.363281 75.542969 50.875 75.800781 52.390625 C 75.855469 52.769531 75.878906 53.175781 75.9375 53.554688 C 76.023438 53.933594 76.328125 54.304688 75.660156 54.457031 C 75.628906 54.484375 75.597656 54.652344 75.585938 54.746094 C 75.453125 56.128906 74.800781 57.402344 73.765625 58.308594 C 72.828125 59.164062 72.058594 60.222656 71.175781 61.148438 C 69.542969 62.773438 67.730469 64.179688 65.765625 65.371094 C 64.324219 66.304688 62.832031 67.105469 61.40625 68.054688 C 60.675781 68.542969 59.988281 69.078125 59.371094 69.671875 C 59.066406 69.921875 58.832031 70.257812 58.703125 70.617188 C 58.019531 73.5 56.300781 75.847656 54.9375 78.355469 C 54.253906 79.621094 53.515625 80.855469 52.671875 82.03125 C 51.371094 83.890625 49.234375 84.972656 46.957031 84.890625 C 43.339844 84.894531 40.457031 83.28125 38.089844 80.816406 Z M 69.066406 62.261719 C 69.457031 61.910156 69.976562 61.511719 70.414062 61.011719 C 71.433594 59.914062 72.316406 58.679688 73.46875 57.707031 C 74.917969 56.511719 75.050781 54.816406 75.15625 53.289062 C 75.238281 51.636719 74.765625 49.960938 74.414062 48.296875 C 74.148438 47.046875 73.695312 45.804688 73.351562 44.5625 C 72.566406 41.445312 71.320312 38.453125 69.667969 35.683594 C 68.777344 34.152344 67.617188 32.8125 66.21875 31.730469 C 63.96875 30.101562 61.4375 29.496094 58.789062 29.101562 C 56.847656 28.804688 55.140625 29.414062 53.550781 30.4375 C 51.960938 31.464844 51.195312 32.941406 50.824219 34.691406 C 50.382812 36.699219 50.015625 38.695312 49.695312 40.714844 C 49.269531 43.464844 48.65625 46.125 47.359375 48.605469 C 46.957031 49.390625 46.59375 50.222656 46.269531 51.03125 C 44.597656 55.121094 42.476562 59.042969 39.980469 62.683594 C 38.65625 64.617188 37.523438 66.683594 36.628906 68.863281 C 35.492188 71.4375 35.503906 74.371094 36.664062 76.953125 C 38.351562 80.996094 41.257812 83.5 45.644531 84.1875 C 48.828125 84.683594 51.25 83.539062 52.890625 80.746094 C 53.617188 79.46875 54.378906 78.191406 55.097656 76.894531 C 56.277344 74.789062 57.566406 72.742188 58.183594 70.363281 C 58.320312 69.910156 58.59375 69.519531 58.949219 69.226562 C 59.832031 68.445312 60.753906 67.742188 61.761719 67.109375 C 64.324219 65.652344 66.78125 64.027344 69.128906 62.238281 Z M 62.15625 63.082031 C 60.644531 64.066406 59.121094 65.070312 57.5625 66.097656 C 57.308594 66.273438 57.058594 66.453125 56.839844 66.632812 C 56.773438 66.6875 56.65625 66.785156 56.652344 66.816406 C 56.824219 67.4375 56.226562 67.503906 55.953125 67.789062 C 55.386719 68.339844 54.804688 68.902344 54.277344 69.503906 C 53.449219 70.523438 52.433594 71.390625 51.28125 72.054688 C 49.226562 73.09375 46.75 72.699219 45.105469 71.082031 C 43.070312 69.019531 42.847656 65.753906 44.59375 63.441406 C 46.199219 61.300781 47.46875 58.953125 48.78125 56.628906 C 49.644531 55.097656 50.449219 53.53125 51.324219 52.015625 C 52.972656 49.273438 53.824219 46.113281 53.765625 42.910156 C 53.722656 41.445312 54.015625 40.015625 54.59375 38.691406 C 55.402344 36.953125 56.683594 36.207031 58.589844 36.421875 C 59.1875 36.496094 59.777344 36.664062 60.308594 36.933594 C 62.0625 37.722656 63.34375 39.074219 64.589844 40.484375 C 66.523438 42.765625 67.9375 45.449219 68.710938 48.351562 C 69.058594 49.59375 69.035156 50.910156 68.667969 52.148438 C 68.289062 53.507812 67.921875 54.855469 67.46875 56.191406 C 66.894531 57.9375 65.761719 59.347656 64.574219 60.691406 C 63.84375 61.523438 63.011719 62.265625 62.152344 63.113281 Z M 61.738281 62.574219 C 62.578125 61.742188 63.363281 61.011719 64.078125 60.226562 C 65.175781 58.980469 66.222656 57.671875 66.761719 56.09375 C 67.242188 54.679688 67.632812 53.226562 68.035156 51.792969 C 68.367188 50.613281 68.332031 49.367188 67.980469 48.214844 C 67.019531 44.707031 65.074219 41.554688 62.394531 39.089844 C 61.535156 38.214844 60.480469 37.554688 59.292969 37.175781 C 57.265625 36.636719 55.898438 37.25 55.113281 39.113281 C 54.9375 39.484375 54.804688 39.875 54.734375 40.273438 C 54.5625 41.265625 54.464844 42.277344 54.410156 43.28125 C 54.441406 46.003906 53.777344 48.667969 52.503906 51.078125 C 51.882812 52.210938 51.199219 53.308594 50.605469 54.476562 C 48.832031 57.859375 47.070312 61.261719 44.753906 64.324219 C 44.113281 65.164062 43.871094 66.242188 44.09375 67.273438 C 44.21875 67.9375 44.402344 68.574219 44.621094 69.21875 C 45.378906 71.308594 48.796875 72.882812 50.980469 71.480469 C 52.027344 70.789062 52.976562 69.984375 53.796875 69.054688 C 54.371094 68.410156 55.015625 67.820312 55.652344 67.214844 C 55.90625 66.976562 56.335938 66.878906 56.226562 66.402344 C 56.203125 66.335938 56.355469 66.210938 56.457031 66.128906 C 56.707031 65.921875 56.976562 65.699219 57.273438 65.542969 C 58.816406 64.527344 60.355469 63.542969 61.78125 62.59375 Z M 61.738281 62.574219"/></g></g></g></g></g></g><g mask="url(#v)"><g><g clip-path="url(#w)" transform="translate(65 264)"><g clip-path="url(#x)"><g clip-path="url(#y)"><g clip-path="url(#z)"><path fill="#FFF" d="M 39.257812 28.011719 C 19.144531 29.929688 7.355469 42.546875 4.933594 56.210938 C 2.972656 67.28125 7.160156 79.039062 18.050781 86.359375 C 22.515625 89.359375 27.699219 91 33.179688 92.507812 C 51.082031 97.445312 50.148438 96.398438 62.402344 109.277344 C 81.273438 129.109375 118.914062 117.933594 128.230469 92.765625 C 133.789062 77.753906 131.15625 58.339844 108.132812 41.632812 C 93.734375 31.183594 101.042969 9.550781 80.34375 6.210938 C 74.632812 5.289062 68.460938 6.464844 64.121094 10.113281 C 57.046875 16.0625 54.382812 26.570312 39.257812 28.011719" fill-rule="evenodd"/></g></g></g></g></g></g><g mask="url(#A)"><g><g clip-path="url(#B)" transform="translate(71 261)"><g clip-path="url(#C)"><g clip-path="url(#D)"><g clip-path="url(#E)"><path fill="#FFF" d="M 38.949219 27.621094 C 18.839844 29.539062 7.046875 42.15625 4.628906 55.820312 C 2.667969 66.890625 6.855469 78.648438 17.746094 85.96875 C 22.210938 88.96875 27.394531 90.605469 32.875 92.117188 C 50.777344 97.054688 49.839844 96.003906 62.097656 108.886719 C 80.96875 128.71875 118.609375 117.542969 127.925781 92.375 C 133.480469 77.363281 130.847656 57.945312 107.828125 41.242188 C 93.425781 30.792969 100.738281 9.160156 80.039062 5.820312 C 74.328125 4.898438 68.15625 6.074219 63.816406 9.722656 C 56.738281 15.671875 54.078125 26.175781 38.949219 27.621094" fill-rule="evenodd"/></g></g></g></g></g></g><g mask="url(#F)"><g><g clip-path="url(#G)" transform="translate(71 257)"><g clip-path="url(#H)"><g clip-path="url(#I)"><g clip-path="url(#J)"><path fill="#FFF" d="M 39.269531 27.289062 C 19.15625 29.207031 7.367188 41.824219 4.945312 55.488281 C 2.984375 66.558594 7.171875 78.316406 18.0625 85.636719 C 22.527344 88.636719 27.710938 90.273438 33.191406 91.785156 C 51.097656 96.722656 50.160156 95.671875 62.417969 108.554688 C 81.289062 128.386719 118.929688 117.210938 128.246094 92.042969 C 133.800781 77.03125 131.167969 57.613281 108.148438 40.910156 C 93.746094 30.460938 101.054688 8.828125 80.359375 5.488281 C 74.644531 4.566406 68.476562 5.742188 64.136719 9.390625 C 57.058594 15.339844 54.394531 25.84375 39.269531 27.289062" fill-rule="evenodd"/></g></g></g></g></g></g><g mask="url(#K)"><g><g clip-path="url(#L)" transform="translate(82 269)"><g clip-path="url(#M)"><g clip-path="url(#N)"><g clip-path="url(#O)"><path fill="#FFF" d="M 9.164062 43.675781 C 11.785156 41.972656 14.449219 40.292969 17.042969 38.554688 C 19.519531 36.871094 21.917969 35.082031 24.382812 33.378906 C 25.964844 32.289062 27.644531 31.339844 29.171875 30.125 C 31.277344 28.484375 33.488281 26.960938 35.769531 25.570312 C 37.683594 24.382812 39.847656 23.710938 42.082031 23.601562 C 45.515625 23.460938 48.933594 23.835938 52.246094 24.710938 C 53.808594 25.089844 55.402344 25.398438 57.011719 25.613281 C 59.757812 25.976562 62.417969 26.792969 64.882812 28.015625 C 66.855469 28.988281 68.847656 29.953125 70.871094 30.808594 C 72.125 31.351562 73.429688 31.78125 74.765625 32.105469 C 77.972656 32.863281 81.066406 34.074219 83.945312 35.671875 C 86.296875 36.996094 88.847656 38 91.46875 38.605469 C 94.394531 39.1875 96.710938 40.777344 98.738281 42.828125 C 100.394531 44.5 102.058594 46.136719 103.632812 47.917969 C 105.652344 50.191406 107.253906 52.777344 108.335938 55.613281 C 109.128906 57.722656 109.261719 59.992188 108.703125 62.183594 C 107.449219 67.75 104.621094 72.839844 100.539062 76.851562 C 98.316406 79.050781 96.109375 81.238281 93.761719 83.257812 C 92.097656 84.617188 90.332031 85.867188 88.496094 86.972656 C 86.179688 88.464844 83.765625 89.894531 81.058594 90.542969 C 78.015625 91.289062 74.953125 91.890625 71.863281 92.457031 C 70.992188 92.578125 70.085938 92.570312 69.214844 92.425781 C 67.539062 92.230469 65.855469 91.984375 64.183594 91.675781 C 61.175781 91.125 58.164062 90.417969 55.441406 88.976562 C 52.9375 87.730469 51.050781 85.5 50.222656 82.835938 C 49.972656 82.050781 49.5 81.367188 48.855469 80.855469 C 47.796875 79.941406 46.875 78.875 46.125 77.671875 C 45.371094 76.621094 44.472656 75.703125 43.472656 74.90625 C 40.03125 72.078125 36.464844 69.414062 32.398438 67.441406 C 28.042969 65.324219 23.582031 63.4375 19.089844 61.625 C 16.546875 60.59375 14.046875 59.476562 11.484375 58.457031 C 10.492188 58.054688 9.457031 57.789062 8.433594 57.457031 C 7.109375 57.042969 5.929688 56.292969 4.980469 55.300781 C 2.925781 53.214844 2.757812 49.929688 4.542969 47.636719 C 5.882812 46.074219 7.417969 44.722656 9.164062 43.675781 Z M 49.054688 80.1875 C 49.886719 80.699219 50.496094 81.503906 50.785156 82.417969 C 51.554688 85.152344 53.5 87.394531 56.113281 88.5625 C 57.910156 89.394531 59.789062 90.039062 61.722656 90.457031 C 64.53125 91.066406 67.398438 91.449219 70.253906 91.894531 C 70.6875 91.941406 71.140625 91.945312 71.582031 91.855469 C 74.949219 91.386719 78.269531 90.660156 81.527344 89.6875 C 83.921875 88.964844 86.066406 87.722656 88.132812 86.375 C 89.933594 85.289062 91.664062 84.066406 93.320312 82.738281 C 95.535156 80.867188 97.546875 78.785156 99.671875 76.785156 C 103.367188 73.253906 106.128906 68.796875 107.628906 63.855469 C 108.527344 61.082031 108.75 58.25 107.582031 55.445312 C 106.671875 53.28125 105.476562 51.242188 104.007812 49.386719 C 102.078125 46.894531 99.769531 44.746094 97.484375 42.550781 C 95.875 40.953125 93.839844 39.808594 91.636719 39.3125 C 88.777344 38.628906 86.019531 37.558594 83.457031 36.117188 C 80.625 34.511719 77.570312 33.355469 74.414062 32.667969 C 73.960938 32.554688 73.511719 32.441406 73.066406 32.296875 C 70.375 31.394531 67.785156 30.261719 65.285156 28.90625 C 62.949219 27.675781 60.4375 26.808594 57.847656 26.367188 C 55.339844 25.921875 52.855469 25.402344 50.339844 24.910156 C 47.554688 24.335938 44.691406 24.109375 41.835938 24.246094 C 39.0625 24.382812 36.726562 25.574219 34.53125 27.085938 C 32.484375 28.503906 30.496094 30.007812 28.460938 31.441406 C 25.65625 33.378906 22.832031 35.246094 20.050781 37.21875 C 16.859375 39.476562 13.617188 41.664062 10.230469 43.683594 C 8.382812 44.773438 6.714844 46.164062 5.285156 47.785156 C 3.085938 50.289062 4.011719 53.285156 5.605469 54.976562 C 6.628906 56.074219 7.976562 56.605469 9.378906 57.097656 C 11.476562 57.828125 13.535156 58.582031 15.585938 59.398438 C 18.421875 60.546875 21.242188 61.707031 24.050781 62.929688 C 29.769531 65.40625 35.574219 67.773438 40.5 71.753906 C 42.425781 73.316406 44.308594 74.886719 46.164062 76.5 C 47.191406 77.410156 48.09375 78.40625 49.085938 79.34375 C 49.417969 79.671875 49.378906 79.882812 49.054688 80.1875 Z M 56.488281 81.878906 C 55.410156 80.3125 54.824219 78.542969 54.117188 76.824219 C 51.457031 70.402344 47.863281 64.542969 42.785156 59.765625 C 41.042969 58.125 39.082031 56.746094 36.644531 56.25 C 36.023438 56.121094 35.375 56.066406 34.75 56.046875 C 32.953125 55.984375 31.15625 55.683594 29.445312 55.167969 C 27.988281 54.710938 26.664062 53.871094 25.597656 52.75 C 25.085938 52.28125 24.765625 51.625 24.707031 50.921875 C 24.605469 50.195312 24.609375 49.476562 24.683594 48.734375 C 25.355469 43.4375 27.488281 38.457031 30.871094 34.316406 C 32.09375 32.859375 33.644531 31.683594 35.402344 30.921875 C 37.441406 29.992188 39.429688 28.910156 41.660156 28.566406 C 44.621094 28.089844 47.605469 27.753906 50.589844 28.347656 C 54.25 29.113281 57.714844 30.707031 60.691406 32.980469 C 64.703125 35.945312 68.773438 38.84375 72.828125 41.753906 C 74.96875 43.199219 77.4375 44.125 80.007812 44.421875 C 82.589844 44.816406 85.113281 45.355469 87.660156 45.855469 C 89.40625 46.191406 91.171875 46.484375 92.902344 46.910156 C 93.949219 47.195312 94.941406 47.597656 95.910156 48.074219 C 97.011719 48.558594 97.804688 49.554688 98.03125 50.726562 C 98.195312 51.460938 98.394531 52.175781 98.460938 52.925781 C 98.765625 55.210938 99.058594 57.480469 99.265625 59.777344 C 99.636719 63.851562 98.605469 67.511719 95.960938 70.71875 C 93.453125 73.699219 90.855469 76.554688 87.726562 78.902344 C 84.347656 81.390625 80.394531 83.007812 76.234375 83.597656 C 72.871094 84.113281 69.480469 84.542969 66.097656 84.992188 C 64.550781 85.210938 62.980469 85.203125 61.4375 84.96875 C 61.023438 84.910156 60.597656 85.019531 60.175781 84.910156 C 59.714844 84.855469 59.257812 84.695312 58.882812 84.421875 C 58.015625 83.667969 57.246094 82.816406 56.402344 82.019531 Z M 86.933594 78.675781 C 90.246094 76.285156 93.171875 73.175781 95.867188 69.773438 C 97.796875 67.378906 98.800781 64.375 98.691406 61.292969 C 98.574219 57.972656 98.191406 54.648438 97.5625 51.394531 C 97.339844 49.953125 96.34375 48.78125 94.984375 48.3125 C 93.394531 47.660156 91.722656 47.164062 90.015625 46.882812 C 87.992188 46.527344 85.957031 46.15625 83.917969 45.78125 C 82.671875 45.554688 81.445312 45.234375 80.210938 45.101562 C 77.296875 44.804688 74.492188 43.742188 72.101562 42.046875 C 67.964844 39.058594 63.835938 36.039062 59.699219 33.082031 C 56.503906 30.800781 53.035156 29.160156 49.078125 28.808594 C 44.898438 28.375 40.679688 29.109375 36.878906 30.910156 C 34.554688 32.039062 32.378906 33.273438 30.816406 35.390625 C 28.453125 38.507812 26.761719 42.09375 25.875 45.921875 C 25.574219 47.296875 25.386719 48.675781 25.269531 50.082031 C 25.179688 50.835938 25.414062 51.601562 25.910156 52.164062 C 26.742188 53.101562 27.773438 53.824219 28.925781 54.300781 C 30.761719 55 32.707031 55.355469 34.664062 55.386719 C 36.574219 55.421875 38.4375 55.96875 40.078125 56.960938 C 42.636719 58.433594 44.683594 60.550781 46.519531 62.789062 C 50.058594 67.066406 52.871094 71.871094 54.875 77.042969 C 55.574219 78.898438 56.269531 80.753906 57.5625 82.28125 C 58.496094 83.363281 59.425781 84.554688 61.132812 84.222656 C 61.230469 84.207031 61.351562 84.230469 61.445312 84.246094 C 62.96875 84.496094 64.492188 84.507812 66.019531 84.300781 C 69.335938 83.871094 72.648438 83.441406 75.960938 82.933594 C 79.910156 82.386719 83.660156 80.9375 86.933594 78.675781 Z M 48.457031 77.359375 C 48.367188 77.421875 48.363281 77.609375 48.335938 77.761719 C 48.488281 77.789062 48.660156 77.882812 48.773438 77.859375 C 48.90625 77.820312 48.867188 77.609375 48.957031 77.386719 C 48.753906 77.367188 48.546875 77.296875 48.457031 77.359375 Z M 39.625 35.921875 C 42.324219 34.296875 45.09375 33.234375 48.210938 33.632812 C 49.371094 33.8125 50.484375 34.15625 51.542969 34.648438 C 53.917969 35.746094 56.109375 37.152344 58.109375 38.855469 C 61.359375 41.523438 64.90625 43.851562 68.652344 45.78125 C 69.472656 46.199219 70.320312 46.621094 71.09375 47.125 C 73.617188 48.78125 76.445312 49.644531 79.363281 50.335938 C 81.367188 50.8125 83.34375 51.410156 85.300781 52.050781 C 86.953125 52.558594 88.316406 53.6875 89.140625 55.191406 C 90.140625 57.023438 90.652344 58.953125 90.128906 61.042969 C 89.492188 63.660156 88.671875 66.164062 86.902344 68.289062 C 85.613281 69.765625 84.03125 70.933594 82.261719 71.757812 C 79.328125 73.199219 76.195312 74.195312 72.953125 74.734375 C 71.769531 74.941406 70.609375 75.261719 69.402344 75.433594 C 67.902344 75.644531 66.375 75.742188 64.84375 75.871094 C 64.464844 75.894531 64.058594 75.882812 63.675781 75.90625 C 63.289062 75.960938 62.894531 76.234375 62.796875 75.558594 C 62.773438 75.523438 62.609375 75.476562 62.515625 75.460938 C 61.148438 75.207031 59.9375 74.453125 59.117188 73.34375 C 58.34375 72.339844 57.355469 71.480469 56.507812 70.527344 C 55.023438 68.761719 53.777344 66.835938 52.753906 64.78125 C 51.945312 63.265625 51.273438 61.710938 50.449219 60.210938 C 50.023438 59.441406 49.542969 58.710938 49.007812 58.046875 C 48.78125 57.722656 48.46875 57.460938 48.121094 57.300781 C 45.304688 56.378906 43.109375 54.46875 40.726562 52.898438 C 39.519531 52.113281 38.355469 51.269531 37.253906 50.332031 C 35.511719 48.878906 34.613281 46.660156 34.882812 44.398438 C 35.183594 40.792969 37.035156 38.054688 39.691406 35.902344 Z M 55.574219 68.328125 C 55.890625 68.746094 56.246094 69.300781 56.707031 69.777344 C 57.714844 70.886719 58.871094 71.871094 59.746094 73.097656 C 60.8125 74.644531 62.492188 74.921875 64.003906 75.152344 C 65.644531 75.371094 67.351562 75.042969 69.039062 74.832031 C 70.308594 74.671875 71.582031 74.324219 72.851562 74.085938 C 76.027344 73.566406 79.113281 72.578125 82.011719 71.164062 C 83.609375 70.402344 85.042969 69.363281 86.238281 68.058594 C 88.050781 65.953125 88.867188 63.480469 89.484375 60.875 C 89.941406 58.964844 89.476562 57.214844 88.589844 55.542969 C 87.703125 53.875 86.292969 52.988281 84.582031 52.46875 C 82.621094 51.859375 80.660156 51.328125 78.675781 50.835938 C 75.96875 50.183594 73.371094 49.347656 71.007812 47.847656 C 70.261719 47.378906 69.460938 46.949219 68.683594 46.554688 C 64.746094 44.546875 61.015625 42.105469 57.601562 39.308594 C 55.78125 37.832031 53.820312 36.527344 51.726562 35.453125 C 49.253906 34.105469 46.328125 33.867188 43.660156 34.808594 C 39.488281 36.148438 36.75 38.835938 35.695312 43.148438 C 34.933594 46.277344 35.871094 48.789062 38.515625 50.65625 C 39.730469 51.492188 40.9375 52.355469 42.167969 53.179688 C 44.167969 54.535156 46.101562 55.988281 48.417969 56.804688 C 48.855469 56.980469 49.222656 57.285156 49.484375 57.660156 C 50.191406 58.609375 50.8125 59.585938 51.359375 60.644531 C 52.597656 63.320312 54.007812 65.90625 55.59375 68.394531 Z M 55.339844 61.375 C 54.484375 59.789062 53.613281 58.183594 52.722656 56.542969 C 52.566406 56.277344 52.410156 56.015625 52.246094 55.78125 C 52.199219 55.707031 52.109375 55.582031 52.082031 55.578125 C 51.445312 55.695312 51.429688 55.097656 51.171875 54.796875 C 50.671875 54.1875 50.15625 53.558594 49.601562 52.988281 C 48.652344 52.074219 47.878906 50.988281 47.3125 49.785156 C 46.449219 47.648438 47.050781 45.214844 48.800781 43.714844 C 51.023438 41.859375 54.296875 41.910156 56.457031 43.84375 C 58.457031 45.625 60.6875 47.085938 62.894531 48.589844 C 64.34375 49.578125 65.839844 50.511719 67.273438 51.511719 C 69.867188 53.386719 72.949219 54.5 76.144531 54.710938 C 77.605469 54.789062 79.007812 55.203125 80.28125 55.890625 C 81.945312 56.839844 82.578125 58.183594 82.203125 60.0625 C 82.078125 60.652344 81.863281 61.222656 81.550781 61.730469 C 80.617188 63.414062 79.164062 64.578125 77.652344 65.699219 C 75.214844 67.433594 72.421875 68.621094 69.46875 69.144531 C 68.199219 69.386719 66.886719 69.253906 65.6875 68.78125 C 64.363281 68.289062 63.050781 67.8125 61.757812 67.246094 C 60.066406 66.527344 58.757812 65.28125 57.515625 63.988281 C 56.75 63.1875 56.082031 62.296875 55.308594 61.367188 Z M 55.878906 61 C 56.640625 61.910156 57.300781 62.753906 58.023438 63.53125 C 59.171875 64.730469 60.390625 65.878906 61.917969 66.554688 C 63.285156 67.148438 64.699219 67.660156 66.09375 68.183594 C 67.242188 68.613281 68.484375 68.683594 69.664062 68.429688 C 73.238281 67.765625 76.542969 66.09375 79.226562 63.628906 C 80.171875 62.84375 80.917969 61.851562 81.394531 60.699219 C 82.101562 58.722656 81.605469 57.3125 79.816406 56.371094 C 79.460938 56.164062 79.082031 56 78.691406 55.898438 C 77.71875 55.640625 76.714844 55.457031 75.71875 55.324219 C 73.007812 55.125 70.402344 54.238281 68.113281 52.765625 C 67.035156 52.050781 65.996094 51.277344 64.882812 50.589844 C 61.660156 48.535156 58.421875 46.496094 55.5625 43.933594 C 54.78125 43.222656 53.726562 42.886719 52.679688 43.027344 C 52.007812 43.09375 51.355469 43.222656 50.699219 43.386719 C 48.550781 43.964844 46.695312 47.238281 47.910156 49.535156 C 48.507812 50.632812 49.234375 51.648438 50.089844 52.542969 C 50.683594 53.167969 51.214844 53.863281 51.765625 54.546875 C 51.984375 54.820312 52.046875 55.257812 52.527344 55.1875 C 52.59375 55.167969 52.707031 55.332031 52.78125 55.4375 C 52.96875 55.707031 53.167969 55.996094 53.300781 56.304688 C 54.179688 57.925781 55.03125 59.542969 55.855469 61.042969 Z M 55.878906 61"/></g></g></g></g></g></g><g mask="url(#P)"><g><g clip-path="url(#Q)" transform="translate(287 236)"><g clip-path="url(#R)"><g clip-path="url(#S)"><g clip-path="url(#T)"><path fill="#FFF" d="M 38.980469 27.675781 C 18.867188 29.59375 7.078125 42.210938 4.65625 55.875 C 2.695312 66.945312 6.882812 78.703125 17.773438 86.019531 C 22.238281 89.023438 27.421875 90.660156 32.902344 92.171875 C 50.804688 97.105469 49.871094 96.058594 62.125 108.941406 C 80.996094 128.773438 118.636719 117.597656 127.953125 92.429688 C 133.511719 77.417969 130.878906 58 107.855469 41.296875 C 93.457031 30.847656 100.765625 9.214844 80.066406 5.875 C 74.355469 4.953125 68.183594 6.128906 63.84375 9.773438 C 56.765625 15.726562 54.105469 26.230469 38.980469 27.675781" fill-rule="evenodd"/></g></g></g></g></g></g><g mask="url(#U)"><g><g clip-path="url(#V)" transform="translate(292 233)"><g clip-path="url(#W)"><g clip-path="url(#X)"><g clip-path="url(#Y)"><path fill="#FFF" d="M 39.671875 27.28125 C 19.5625 29.203125 7.769531 41.816406 5.351562 55.484375 C 3.390625 66.550781 7.574219 78.308594 18.464844 85.628906 C 22.929688 88.628906 28.113281 90.269531 33.597656 91.78125 C 51.5 96.714844 50.5625 95.667969 62.820312 108.550781 C 81.691406 128.382812 119.332031 117.207031 128.648438 92.039062 C 134.203125 77.027344 131.570312 57.609375 108.550781 40.902344 C 94.148438 30.453125 101.460938 8.824219 80.761719 5.480469 C 75.050781 4.5625 68.878906 5.734375 64.539062 9.382812 C 57.460938 15.332031 54.796875 25.839844 39.671875 27.28125" fill-rule="evenodd"/></g></g></g></g></g></g><g mask="url(#Z)"><g><g clip-path="url(#aa)" transform="translate(293 228)"><g clip-path="url(#ab)"><g clip-path="url(#ac)"><g clip-path="url(#ad)"><path fill="#FFF" d="M 38.992188 27.949219 C 18.878906 29.871094 7.089844 42.484375 4.667969 56.152344 C 2.707031 67.21875 6.894531 78.976562 17.785156 86.296875 C 22.25 89.296875 27.433594 90.9375 32.914062 92.449219 C 50.820312 97.382812 49.882812 96.335938 62.136719 109.21875 C 81.011719 129.050781 118.652344 117.875 127.96875 92.707031 C 133.523438 77.695312 130.890625 58.277344 107.871094 41.570312 C 93.46875 31.121094 100.777344 9.492188 80.082031 6.148438 C 74.367188 5.230469 68.195312 6.402344 63.859375 10.050781 C 56.78125 16 54.117188 26.507812 38.992188 27.949219" fill-rule="evenodd"/></g></g></g></g></g></g><g mask="url(#ae)"><g><g clip-path="url(#af)" transform="translate(304 241)"><g clip-path="url(#ag)"><g clip-path="url(#ah)"><g clip-path="url(#ai)"><path fill="#FFF" d="M 8.886719 43.335938 C 11.507812 41.632812 14.167969 39.953125 16.765625 38.214844 C 19.242188 36.535156 21.640625 34.742188 24.105469 33.042969 C 25.6875 31.949219 27.367188 31 28.894531 29.789062 C 31 28.148438 33.210938 26.621094 35.492188 25.234375 C 37.40625 24.042969 39.570312 23.371094 41.804688 23.265625 C 45.238281 23.125 48.65625 23.5 51.96875 24.371094 C 53.53125 24.753906 55.125 25.0625 56.734375 25.277344 C 59.480469 25.640625 62.140625 26.457031 64.605469 27.679688 C 66.578125 28.652344 68.570312 29.613281 70.59375 30.472656 C 71.847656 31.015625 73.152344 31.445312 74.488281 31.765625 C 77.695312 32.527344 80.789062 33.738281 83.667969 35.335938 C 86.019531 36.660156 88.566406 37.660156 91.191406 38.269531 C 94.113281 38.851562 96.433594 40.4375 98.460938 42.492188 C 100.117188 44.160156 101.78125 45.800781 103.355469 47.582031 C 105.375 49.851562 106.976562 52.4375 108.058594 55.277344 C 108.851562 57.386719 108.984375 59.65625 108.425781 61.847656 C 107.171875 67.414062 104.34375 72.5 100.261719 76.515625 C 98.039062 78.714844 95.832031 80.902344 93.484375 82.921875 C 91.820312 84.28125 90.054688 85.527344 88.21875 86.636719 C 85.902344 88.128906 83.488281 89.554688 80.777344 90.207031 C 77.738281 90.953125 74.675781 91.554688 71.585938 92.117188 C 70.714844 92.242188 69.804688 92.230469 68.9375 92.089844 C 67.261719 91.890625 65.578125 91.644531 63.90625 91.339844 C 60.898438 90.789062 57.886719 90.078125 55.164062 88.636719 C 52.660156 87.394531 50.773438 85.164062 49.941406 82.496094 C 49.695312 81.714844 49.222656 81.03125 48.578125 80.519531 C 47.519531 79.601562 46.597656 78.539062 45.847656 77.332031 C 45.09375 76.285156 44.195312 75.363281 43.195312 74.570312 C 39.753906 71.738281 36.1875 69.074219 32.121094 67.105469 C 27.765625 64.988281 23.300781 63.101562 18.8125 61.289062 C 16.269531 60.257812 13.769531 59.140625 11.207031 58.121094 C 10.214844 57.71875 9.179688 57.449219 8.15625 57.121094 C 6.832031 56.707031 5.652344 55.957031 4.703125 54.964844 C 2.648438 52.875 2.480469 49.59375 4.265625 47.296875 C 5.605469 45.738281 7.140625 44.382812 8.886719 43.335938 Z M 48.777344 79.847656 C 49.609375 80.363281 50.21875 81.164062 50.507812 82.082031 C 51.277344 84.816406 53.222656 87.058594 55.835938 88.226562 C 57.632812 89.058594 59.511719 89.699219 61.445312 90.117188 C 64.253906 90.726562 67.121094 91.113281 69.976562 91.554688 C 70.40625 91.605469 70.863281 91.609375 71.304688 91.515625 C 74.671875 91.050781 77.992188 90.324219 81.25 89.351562 C 83.644531 88.625 85.789062 87.386719 87.855469 86.035156 C 89.65625 84.953125 91.386719 83.730469 93.042969 82.402344 C 95.257812 80.527344 97.269531 78.445312 99.394531 76.449219 C 103.089844 72.917969 105.851562 68.457031 107.351562 63.519531 C 108.25 60.746094 108.472656 57.914062 107.304688 55.105469 C 106.394531 52.945312 105.199219 50.902344 103.730469 49.046875 C 101.800781 46.558594 99.492188 44.40625 97.207031 42.214844 C 95.597656 40.613281 93.5625 39.472656 91.359375 38.972656 C 88.5 38.292969 85.742188 37.222656 83.179688 35.777344 C 80.347656 34.175781 77.292969 33.019531 74.136719 32.332031 C 73.683594 32.214844 73.234375 32.101562 72.789062 31.957031 C 70.097656 31.054688 67.507812 29.921875 65.007812 28.570312 C 62.671875 27.339844 60.160156 26.472656 57.570312 26.027344 C 55.058594 25.582031 52.578125 25.066406 50.0625 24.574219 C 47.277344 24 44.414062 23.773438 41.558594 23.910156 C 38.785156 24.046875 36.449219 25.234375 34.253906 26.75 C 32.207031 28.164062 30.21875 29.671875 28.179688 31.101562 C 25.378906 33.039062 22.554688 34.910156 19.773438 36.882812 C 16.582031 39.140625 13.339844 41.324219 9.953125 43.34375 C 8.105469 44.433594 6.4375 45.824219 5.007812 47.449219 C 2.808594 49.953125 3.734375 52.949219 5.328125 54.640625 C 6.351562 55.738281 7.699219 56.265625 9.101562 56.761719 C 11.199219 57.488281 13.257812 58.246094 15.308594 59.058594 C 18.144531 60.207031 20.964844 61.367188 23.773438 62.589844 C 29.492188 65.066406 35.296875 67.433594 40.222656 71.417969 C 42.148438 72.980469 44.03125 74.550781 45.886719 76.160156 C 46.914062 77.074219 47.816406 78.070312 48.808594 79.007812 C 49.140625 79.335938 49.101562 79.546875 48.777344 79.847656 Z M 56.210938 81.542969 C 55.132812 79.976562 54.546875 78.203125 53.839844 76.488281 C 51.179688 70.0625 47.585938 64.207031 42.507812 59.425781 C 40.765625 57.789062 38.804688 56.40625 36.367188 55.914062 C 35.746094 55.785156 35.097656 55.726562 34.472656 55.707031 C 32.675781 55.644531 30.878906 55.347656 29.167969 54.828125 C 27.710938 54.375 26.386719 53.535156 25.320312 52.414062 C 24.808594 51.941406 24.488281 51.285156 24.429688 50.585938 C 24.328125 49.859375 24.332031 49.136719 24.40625 48.398438 C 25.074219 43.101562 27.210938 38.121094 30.59375 33.980469 C 31.816406 32.523438 33.367188 31.347656 35.125 30.585938 C 37.164062 29.65625 39.152344 28.574219 41.382812 28.230469 C 44.34375 27.75 47.328125 27.417969 50.3125 28.011719 C 53.972656 28.777344 57.4375 30.371094 60.414062 32.644531 C 64.425781 35.609375 68.496094 38.507812 72.550781 41.417969 C 74.691406 42.863281 77.160156 43.785156 79.726562 44.085938 C 82.3125 44.480469 84.835938 45.019531 87.382812 45.519531 C 89.128906 45.855469 90.894531 46.144531 92.625 46.574219 C 93.671875 46.859375 94.664062 47.261719 95.632812 47.738281 C 96.734375 48.222656 97.527344 49.214844 97.753906 50.386719 C 97.917969 51.125 98.117188 51.835938 98.183594 52.585938 C 98.488281 54.875 98.78125 57.140625 98.988281 59.441406 C 99.359375 63.515625 98.328125 67.175781 95.683594 70.382812 C 93.175781 73.359375 90.578125 76.214844 87.449219 78.5625 C 84.070312 81.054688 80.117188 82.671875 75.957031 83.257812 C 72.59375 83.773438 69.203125 84.203125 65.820312 84.652344 C 64.273438 84.871094 62.703125 84.867188 61.160156 84.632812 C 60.746094 84.570312 60.320312 84.679688 59.898438 84.574219 C 59.4375 84.519531 58.980469 84.359375 58.605469 84.085938 C 57.738281 83.328125 56.96875 82.480469 56.125 81.683594 Z M 86.65625 78.339844 C 89.96875 75.945312 92.894531 72.839844 95.589844 69.4375 C 97.519531 67.042969 98.523438 64.039062 98.414062 60.953125 C 98.296875 57.632812 97.914062 54.3125 97.285156 51.054688 C 97.0625 49.617188 96.066406 48.445312 94.707031 47.976562 C 93.113281 47.324219 91.445312 46.828125 89.738281 46.546875 C 87.714844 46.191406 85.679688 45.820312 83.640625 45.445312 C 82.394531 45.21875 81.167969 44.898438 79.933594 44.765625 C 77.019531 44.46875 74.214844 43.402344 71.824219 41.707031 C 67.6875 38.71875 63.558594 35.703125 59.421875 32.746094 C 56.226562 30.460938 52.757812 28.820312 48.796875 28.472656 C 44.621094 28.039062 40.402344 28.773438 36.601562 30.574219 C 34.277344 31.703125 32.101562 32.9375 30.539062 35.054688 C 28.175781 38.171875 26.484375 41.757812 25.597656 45.582031 C 25.296875 46.957031 25.109375 48.335938 24.992188 49.746094 C 24.902344 50.496094 25.136719 51.265625 25.632812 51.824219 C 26.464844 52.765625 27.496094 53.488281 28.648438 53.964844 C 30.484375 54.664062 32.429688 55.019531 34.386719 55.046875 C 36.296875 55.085938 38.160156 55.628906 39.800781 56.621094 C 42.359375 58.09375 44.40625 60.214844 46.242188 62.453125 C 49.78125 66.726562 52.59375 71.53125 54.597656 76.707031 C 55.296875 78.5625 55.992188 80.417969 57.285156 81.941406 C 58.21875 83.023438 59.148438 84.214844 60.855469 83.882812 C 60.953125 83.871094 61.074219 83.894531 61.167969 83.910156 C 62.691406 84.15625 64.214844 84.167969 65.742188 83.964844 C 69.058594 83.535156 72.371094 83.105469 75.683594 82.597656 C 79.632812 82.046875 83.382812 80.597656 86.65625 78.339844 Z M 48.179688 77.023438 C 48.089844 77.085938 48.085938 77.273438 48.058594 77.425781 C 48.210938 77.453125 48.382812 77.546875 48.496094 77.519531 C 48.628906 77.480469 48.589844 77.269531 48.675781 77.050781 C 48.476562 77.03125 48.269531 76.960938 48.179688 77.023438 Z M 39.347656 35.585938 C 42.046875 33.957031 44.816406 32.894531 47.933594 33.292969 C 49.09375 33.476562 50.207031 33.820312 51.265625 34.3125 C 53.640625 35.40625 55.832031 36.816406 57.832031 38.515625 C 61.082031 41.183594 64.628906 43.515625 68.375 45.445312 C 69.195312 45.859375 70.042969 46.285156 70.816406 46.785156 C 73.339844 48.441406 76.167969 49.304688 79.085938 50 C 81.089844 50.476562 83.066406 51.074219 85.023438 51.714844 C 86.675781 52.222656 88.039062 53.351562 88.863281 54.851562 C 89.863281 56.683594 90.375 58.617188 89.851562 60.703125 C 89.214844 63.320312 88.394531 65.824219 86.625 67.953125 C 85.332031 69.425781 83.753906 70.597656 81.984375 71.421875 C 79.050781 72.863281 75.914062 73.859375 72.675781 74.394531 C 71.492188 74.601562 70.332031 74.925781 69.125 75.09375 C 67.625 75.308594 66.097656 75.40625 64.566406 75.53125 C 64.1875 75.558594 63.78125 75.546875 63.398438 75.570312 C 63.011719 75.625 62.617188 75.898438 62.519531 75.21875 C 62.496094 75.183594 62.332031 75.136719 62.238281 75.121094 C 60.871094 74.871094 59.660156 74.113281 58.839844 73.007812 C 58.066406 72 57.078125 71.144531 56.230469 70.1875 C 54.746094 68.425781 53.496094 66.5 52.476562 64.441406 C 51.667969 62.925781 50.996094 61.375 50.171875 59.871094 C 49.746094 59.105469 49.265625 58.371094 48.730469 57.707031 C 48.503906 57.382812 48.191406 57.121094 47.84375 56.964844 C 45.027344 56.039062 42.832031 54.128906 40.449219 52.5625 C 39.242188 51.777344 38.078125 50.933594 36.976562 49.992188 C 35.234375 48.542969 34.335938 46.320312 34.605469 44.0625 C 34.90625 40.457031 36.757812 37.71875 39.414062 35.566406 Z M 55.296875 67.992188 C 55.613281 68.410156 55.96875 68.960938 56.429688 69.4375 C 57.4375 70.550781 58.59375 71.53125 59.46875 72.761719 C 60.535156 74.308594 62.210938 74.582031 63.726562 74.8125 C 65.367188 75.035156 67.074219 74.703125 68.761719 74.496094 C 70.03125 74.335938 71.304688 73.988281 72.574219 73.75 C 75.746094 73.230469 78.835938 72.242188 81.734375 70.824219 C 83.332031 70.066406 84.761719 69.023438 85.960938 67.71875 C 87.773438 65.617188 88.585938 63.144531 89.207031 60.539062 C 89.664062 58.628906 89.199219 56.878906 88.3125 55.207031 C 87.421875 53.535156 86.015625 52.648438 84.304688 52.132812 C 82.34375 51.523438 80.382812 50.988281 78.398438 50.5 C 75.691406 49.847656 73.09375 49.011719 70.730469 47.507812 C 69.984375 47.042969 69.183594 46.613281 68.40625 46.21875 C 64.46875 44.210938 60.738281 41.765625 57.324219 38.972656 C 55.503906 37.492188 53.542969 36.191406 51.449219 35.117188 C 48.976562 33.765625 46.050781 33.53125 43.382812 34.46875 C 39.210938 35.808594 36.472656 38.496094 35.417969 42.8125 C 34.65625 45.941406 35.59375 48.453125 38.238281 50.320312 C 39.453125 51.152344 40.660156 52.019531 41.890625 52.84375 C 43.890625 54.199219 45.820312 55.652344 48.140625 56.46875 C 48.578125 56.644531 48.945312 56.945312 49.207031 57.324219 C 49.914062 58.269531 50.535156 59.25 51.082031 60.304688 C 52.320312 62.984375 53.730469 65.566406 55.316406 68.058594 Z M 55.0625 61.035156 C 54.207031 59.449219 53.335938 57.84375 52.445312 56.207031 C 52.289062 55.941406 52.132812 55.675781 51.96875 55.441406 C 51.921875 55.371094 51.832031 55.246094 51.804688 55.238281 C 51.167969 55.359375 51.152344 54.757812 50.894531 54.460938 C 50.390625 53.851562 49.878906 53.222656 49.324219 52.648438 C 48.375 51.738281 47.601562 50.652344 47.035156 49.449219 C 46.167969 47.3125 46.773438 44.878906 48.523438 43.375 C 50.746094 41.523438 54.019531 41.570312 56.179688 43.507812 C 58.179688 45.285156 60.410156 46.75 62.617188 48.253906 C 64.066406 49.242188 65.5625 50.175781 66.996094 51.175781 C 69.589844 53.050781 72.671875 54.164062 75.867188 54.371094 C 77.328125 54.453125 78.730469 54.863281 80.003906 55.554688 C 81.667969 56.503906 82.300781 57.84375 81.925781 59.722656 C 81.800781 60.3125 81.585938 60.886719 81.273438 61.394531 C 80.339844 63.078125 78.882812 64.238281 77.375 65.359375 C 74.9375 67.097656 72.144531 68.28125 69.191406 68.808594 C 67.921875 69.046875 66.609375 68.917969 65.410156 68.445312 C 64.085938 67.953125 62.773438 67.476562 61.480469 66.910156 C 59.789062 66.191406 58.476562 64.945312 57.238281 63.648438 C 56.472656 62.851562 55.804688 61.957031 55.03125 61.03125 Z M 55.601562 60.664062 C 56.363281 61.574219 57.023438 62.417969 57.746094 63.191406 C 58.894531 64.394531 60.113281 65.542969 61.636719 66.214844 C 63.007812 66.8125 64.421875 67.320312 65.816406 67.84375 C 66.964844 68.273438 68.207031 68.347656 69.382812 68.089844 C 72.960938 67.425781 76.265625 65.753906 78.949219 63.292969 C 79.890625 62.507812 80.640625 61.515625 81.117188 60.359375 C 81.824219 58.386719 81.328125 56.976562 79.539062 56.035156 C 79.183594 55.828125 78.804688 55.664062 78.414062 55.5625 C 77.441406 55.304688 76.4375 55.121094 75.441406 54.984375 C 72.730469 54.785156 70.125 53.902344 67.835938 52.429688 C 66.757812 51.710938 65.71875 50.941406 64.605469 50.25 C 61.382812 48.199219 58.144531 46.160156 55.285156 43.59375 C 54.503906 42.886719 53.449219 42.550781 52.402344 42.6875 C 51.730469 42.753906 51.078125 42.886719 50.421875 43.046875 C 48.273438 43.628906 46.417969 46.902344 47.632812 49.195312 C 48.230469 50.296875 48.957031 51.308594 49.8125 52.203125 C 50.40625 52.832031 50.9375 53.527344 51.488281 54.207031 C 51.707031 54.484375 51.769531 54.917969 52.25 54.851562 C 52.316406 54.832031 52.429688 54.992188 52.503906 55.101562 C 52.691406 55.371094 52.890625 55.660156 53.019531 55.964844 C 53.902344 57.585938 54.753906 59.203125 55.578125 60.707031 Z M 55.601562 60.664062"/></g></g></g></g></g></g><g mask="url(#aj)"><g><g clip-path="url(#ak)" transform="translate(170)"><g clip-path="url(#al)"><g clip-path="url(#am)"><g clip-path="url(#an)"><path fill="#FFF" d="M 43.90625 -11.699219 C 23.714844 -10.964844 11.207031 0.9375 7.988281 14.4375 C 5.382812 25.371094 8.871094 37.355469 19.3125 45.300781 C 23.59375 48.558594 28.671875 50.5 34.054688 52.328125 C 51.640625 58.304688 50.765625 57.207031 62.246094 70.785156 C 79.921875 91.6875 118.152344 82.738281 128.929688 58.164062 C 135.355469 43.503906 133.867188 23.964844 111.867188 5.9375 C 98.101562 -5.339844 106.667969 -26.503906 86.203125 -31.054688 C 80.554688 -32.308594 74.324219 -31.496094 69.78125 -28.109375 C 62.363281 -22.585938 59.089844 -12.253906 43.90625 -11.699219" fill-rule="evenodd"/></g></g></g></g></g></g><g mask="url(#ao)"><g><g clip-path="url(#ap)" transform="translate(176)"><g clip-path="url(#aq)"><g clip-path="url(#ar)"><g clip-path="url(#as)"><path fill="#FFF" d="M 43.789062 -14.753906 C 23.597656 -14.015625 11.089844 -2.113281 7.871094 11.386719 C 5.265625 22.320312 8.753906 34.304688 19.195312 42.25 C 23.476562 45.507812 28.554688 47.445312 33.941406 49.277344 C 51.523438 55.253906 50.648438 54.152344 62.128906 67.730469 C 79.804688 88.636719 118.035156 79.6875 128.8125 55.109375 C 135.238281 40.449219 133.75 20.910156 111.75 2.886719 C 97.984375 -8.390625 106.550781 -29.554688 86.085938 -34.105469 C 80.4375 -35.359375 74.207031 -34.550781 69.664062 -31.164062 C 62.246094 -25.636719 58.972656 -15.304688 43.789062 -14.753906" fill-rule="evenodd"/></g></g></g></g></g></g><g mask="url(#at)"><g><g clip-path="url(#au)" transform="translate(176)"><g clip-path="url(#av)"><g clip-path="url(#aw)"><g clip-path="url(#ax)"><path fill="#FFF" d="M 44.363281 -19.058594 C 24.171875 -18.324219 11.660156 -6.421875 8.445312 7.082031 C 5.835938 18.015625 9.328125 29.996094 19.769531 37.945312 C 24.050781 41.203125 29.128906 43.140625 34.511719 44.96875 C 52.09375 50.949219 51.222656 49.847656 62.699219 63.425781 C 80.375 84.332031 118.609375 75.382812 129.382812 50.804688 C 135.8125 36.144531 134.324219 16.605469 112.320312 -1.421875 C 98.558594 -12.695312 107.125 -33.863281 86.660156 -38.410156 C 81.007812 -39.667969 74.78125 -38.855469 70.234375 -35.46875 C 62.820312 -29.945312 59.546875 -19.613281 44.363281 -19.058594" fill-rule="evenodd"/></g></g></g></g></g></g><g mask="url(#ay)"><g><g clip-path="url(#az)" transform="translate(190)"><g clip-path="url(#aA)"><g clip-path="url(#aB)"><g clip-path="url(#aC)"><path fill="#FFF" d="M 9.625 8.160156 C 12.339844 6.613281 15.097656 5.09375 17.789062 3.507812 C 20.359375 1.972656 22.859375 0.328125 25.417969 -1.226562 C 27.0625 -2.222656 28.796875 -3.070312 30.390625 -4.191406 C 32.589844 -5.707031 34.886719 -7.101562 37.246094 -8.355469 C 39.222656 -9.429688 41.425781 -9.972656 43.660156 -9.949219 C 47.097656 -9.886719 50.488281 -9.3125 53.742188 -8.246094 C 55.28125 -7.773438 56.855469 -7.375 58.449219 -7.0625 C 61.167969 -6.542969 63.777344 -5.570312 66.164062 -4.207031 C 68.078125 -3.117188 70.007812 -2.039062 71.980469 -1.0625 C 73.199219 -0.449219 74.476562 0.0546875 75.792969 0.457031 C 78.949219 1.402344 81.964844 2.792969 84.746094 4.554688 C 87.015625 6.019531 89.5 7.167969 92.082031 7.925781 C 94.96875 8.679688 97.1875 10.398438 99.09375 12.566406 C 100.648438 14.332031 102.214844 16.066406 103.679688 17.9375 C 105.5625 20.320312 107.007812 23 107.925781 25.894531 C 108.589844 28.046875 108.59375 30.320312 107.90625 32.476562 C 106.328125 37.957031 103.203125 42.871094 98.894531 46.636719 C 96.546875 48.703125 94.214844 50.757812 91.753906 52.636719 C 90.011719 53.898438 88.175781 55.039062 86.277344 56.035156 C 83.878906 57.390625 81.386719 58.675781 78.644531 59.164062 C 75.5625 59.730469 72.46875 60.152344 69.355469 60.535156 C 68.476562 60.605469 67.570312 60.542969 66.710938 60.347656 C 65.050781 60.054688 63.382812 59.710938 61.734375 59.304688 C 58.761719 58.578125 55.796875 57.695312 53.164062 56.097656 C 50.738281 54.707031 48.988281 52.371094 48.3125 49.660156 C 48.109375 48.863281 47.679688 48.152344 47.066406 47.605469 C 46.0625 46.628906 45.207031 45.511719 44.523438 44.261719 C 43.835938 43.171875 42.992188 42.203125 42.039062 41.347656 C 38.773438 38.324219 35.371094 35.453125 31.421875 33.246094 C 27.199219 30.878906 22.855469 28.734375 18.480469 26.660156 C 16 25.480469 13.574219 24.21875 11.074219 23.050781 C 10.105469 22.59375 9.089844 22.265625 8.085938 21.875 C 6.789062 21.382812 5.652344 20.566406 4.765625 19.519531 C 2.835938 17.316406 2.863281 14.027344 4.78125 11.839844 C 6.207031 10.359375 7.820312 9.101562 9.625 8.160156 Z M 47.304688 46.949219 C 48.105469 47.507812 48.664062 48.347656 48.898438 49.277344 C 49.507812 52.050781 51.320312 54.402344 53.859375 55.726562 C 55.605469 56.660156 57.441406 57.410156 59.347656 57.941406 C 62.117188 58.714844 64.957031 59.265625 67.78125 59.878906 C 68.207031 59.949219 68.660156 59.980469 69.105469 59.917969 C 72.496094 59.648438 75.855469 59.117188 79.164062 58.335938 C 81.597656 57.753906 83.808594 56.640625 85.953125 55.417969 C 87.8125 54.441406 89.613281 53.320312 91.34375 52.089844 C 93.664062 50.351562 95.796875 48.390625 98.035156 46.523438 C 101.929688 43.210938 104.949219 38.925781 106.734375 34.082031 C 107.796875 31.367188 108.183594 28.550781 107.179688 25.679688 C 106.402344 23.46875 105.324219 21.363281 103.96875 19.421875 C 102.1875 16.824219 100.011719 14.542969 97.859375 12.21875 C 96.347656 10.527344 94.378906 9.265625 92.210938 8.640625 C 89.394531 7.792969 86.707031 6.5625 84.230469 4.972656 C 81.5 3.203125 78.515625 1.871094 75.40625 1 C 74.960938 0.859375 74.519531 0.71875 74.085938 0.546875 C 71.449219 -0.511719 68.929688 -1.792969 66.511719 -3.292969 C 64.253906 -4.65625 61.796875 -5.671875 59.238281 -6.265625 C 56.757812 -6.855469 54.3125 -7.519531 51.828125 -8.15625 C 49.082031 -8.894531 46.234375 -9.289062 43.378906 -9.316406 C 40.605469 -9.34375 38.199219 -8.296875 35.921875 -6.910156 C 33.792969 -5.621094 31.722656 -4.234375 29.601562 -2.921875 C 26.691406 -1.152344 23.761719 0.546875 20.871094 2.351562 C 17.550781 4.417969 14.183594 6.410156 10.6875 8.226562 C 8.777344 9.207031 7.03125 10.5 5.511719 12.035156 C 3.167969 14.40625 3.917969 17.453125 5.40625 19.230469 C 6.367188 20.390625 7.679688 20.996094 9.050781 21.570312 C 11.101562 22.421875 13.113281 23.296875 15.113281 24.230469 C 17.878906 25.542969 20.625 26.867188 23.355469 28.25 C 28.917969 31.058594 34.574219 33.765625 39.257812 38.027344 C 41.089844 39.699219 42.875 41.378906 44.636719 43.097656 C 45.605469 44.066406 46.449219 45.117188 47.382812 46.109375 C 47.695312 46.453125 47.644531 46.664062 47.304688 46.949219 Z M 54.625 49.074219 C 53.640625 47.449219 53.160156 45.644531 52.554688 43.890625 C 50.277344 37.320312 47.035156 31.261719 42.246094 26.191406 C 40.601562 24.453125 38.722656 22.960938 36.316406 22.324219 C 35.707031 22.160156 35.0625 22.066406 34.4375 22.007812 C 32.652344 21.839844 30.871094 21.4375 29.195312 20.820312 C 27.769531 20.28125 26.496094 19.363281 25.496094 18.183594 C 25.015625 17.683594 24.734375 17.007812 24.714844 16.304688 C 24.65625 15.574219 24.703125 14.855469 24.820312 14.121094 C 25.800781 8.871094 28.222656 4.023438 31.839844 0.0898438 C 33.148438 -1.292969 34.765625 -2.375 36.566406 -3.03125 C 38.65625 -3.839844 40.703125 -4.804688 42.949219 -5.015625 C 45.933594 -5.320312 48.933594 -5.480469 51.878906 -4.710938 C 55.488281 -3.730469 58.851562 -1.9375 61.6875 0.503906 C 65.519531 3.703125 69.414062 6.832031 73.292969 9.976562 C 75.34375 11.542969 77.753906 12.613281 80.300781 13.058594 C 82.855469 13.605469 85.34375 14.292969 87.855469 14.941406 C 89.578125 15.378906 91.328125 15.773438 93.027344 16.300781 C 94.054688 16.648438 95.023438 17.109375 95.960938 17.640625 C 97.035156 18.1875 97.769531 19.226562 97.925781 20.410156 C 98.042969 21.15625 98.203125 21.878906 98.222656 22.628906 C 98.394531 24.929688 98.550781 27.210938 98.625 29.519531 C 98.753906 33.609375 97.511719 37.199219 94.683594 40.246094 C 92.003906 43.074219 89.246094 45.773438 85.984375 47.933594 C 82.464844 50.222656 78.421875 51.601562 74.234375 51.945312 C 70.851562 52.261719 67.4375 52.492188 64.035156 52.742188 C 62.476562 52.871094 60.910156 52.773438 59.386719 52.449219 C 58.976562 52.363281 58.542969 52.449219 58.128906 52.316406 C 57.671875 52.234375 57.222656 52.046875 56.867188 51.753906 C 56.046875 50.945312 55.324219 50.054688 54.53125 49.207031 Z M 85.207031 47.664062 C 88.652344 45.46875 91.753906 42.535156 94.644531 39.300781 C 96.710938 37.019531 97.890625 34.082031 97.960938 30.996094 C 98.042969 27.675781 97.855469 24.335938 97.417969 21.050781 C 97.277344 19.597656 96.355469 18.371094 95.023438 17.824219 C 93.472656 17.078125 91.835938 16.488281 90.148438 16.105469 C 88.148438 15.632812 86.136719 15.140625 84.125 14.648438 C 82.894531 14.347656 81.6875 13.957031 80.464844 13.753906 C 77.574219 13.285156 74.835938 12.054688 72.546875 10.222656 C 68.59375 7 64.652344 3.742188 60.691406 0.546875 C 57.636719 -1.917969 54.269531 -3.757812 50.339844 -4.339844 C 46.195312 -5.019531 41.941406 -4.53125 38.042969 -2.957031 C 35.652344 -1.96875 33.410156 -0.863281 31.722656 1.160156 C 29.183594 4.132812 27.285156 7.613281 26.171875 11.378906 C 25.792969 12.734375 25.523438 14.101562 25.324219 15.5 C 25.191406 16.246094 25.382812 17.023438 25.84375 17.613281 C 26.621094 18.601562 27.605469 19.382812 28.730469 19.925781 C 30.519531 20.730469 32.441406 21.203125 34.394531 21.34375 C 36.296875 21.492188 38.128906 22.148438 39.707031 23.234375 C 42.171875 24.855469 44.09375 27.089844 45.796875 29.429688 C 49.074219 33.90625 51.601562 38.867188 53.300781 44.152344 C 53.886719 46.042969 54.476562 47.9375 55.675781 49.535156 C 56.542969 50.671875 57.398438 51.914062 59.125 51.683594 C 59.222656 51.675781 59.34375 51.707031 59.433594 51.726562 C 60.941406 52.066406 62.460938 52.167969 64 52.050781 C 67.332031 51.816406 70.667969 51.582031 74.003906 51.269531 C 77.976562 50.953125 81.808594 49.726562 85.207031 47.664062 Z M 46.875 44.089844 C 46.78125 44.148438 46.765625 44.335938 46.730469 44.484375 C 46.878906 44.519531 47.046875 44.625 47.160156 44.605469 C 47.296875 44.574219 47.269531 44.363281 47.367188 44.148438 C 47.171875 44.113281 46.96875 44.035156 46.875 44.089844 Z M 40.484375 2.207031 C 43.277344 0.742188 46.105469 -0.15625 49.191406 0.421875 C 50.339844 0.671875 51.433594 1.082031 52.457031 1.636719 C 54.765625 2.867188 56.871094 4.402344 58.765625 6.214844 C 61.855469 9.070312 65.257812 11.605469 68.886719 13.75 C 69.679688 14.214844 70.503906 14.6875 71.242188 15.234375 C 73.667969 17.035156 76.4375 18.0625 79.3125 18.925781 C 81.28125 19.519531 83.222656 20.234375 85.136719 20.988281 C 86.757812 21.589844 88.050781 22.796875 88.789062 24.347656 C 89.679688 26.234375 90.074219 28.191406 89.429688 30.246094 C 88.640625 32.820312 87.675781 35.273438 85.785156 37.289062 C 84.410156 38.6875 82.761719 39.765625 80.949219 40.480469 C 77.933594 41.75 74.746094 42.558594 71.480469 42.90625 C 70.289062 43.042969 69.113281 43.296875 67.894531 43.394531 C 66.386719 43.519531 64.855469 43.527344 63.320312 43.566406 C 62.9375 43.566406 62.535156 43.53125 62.152344 43.535156 C 61.761719 43.566406 61.351562 43.816406 61.292969 43.132812 C 61.273438 43.09375 61.109375 43.039062 61.019531 43.019531 C 59.671875 42.6875 58.503906 41.863281 57.753906 40.707031 C 57.039062 39.65625 56.101562 38.746094 55.3125 37.742188 C 53.933594 35.890625 52.800781 33.898438 51.898438 31.785156 C 51.183594 30.226562 50.601562 28.636719 49.867188 27.085938 C 49.488281 26.292969 49.054688 25.535156 48.554688 24.839844 C 48.351562 24.503906 48.054688 24.226562 47.714844 24.046875 C 44.957031 22.960938 42.878906 20.925781 40.59375 19.21875 C 39.433594 18.363281 38.320312 17.453125 37.277344 16.453125 C 35.617188 14.902344 34.855469 12.628906 35.257812 10.390625 C 35.765625 6.808594 37.777344 4.183594 40.554688 2.191406 Z M 54.507812 35.492188 C 54.800781 35.929688 55.121094 36.5 55.554688 37.003906 C 56.496094 38.171875 57.589844 39.21875 58.390625 40.496094 C 59.367188 42.105469 61.023438 42.476562 62.523438 42.796875 C 64.144531 43.113281 65.871094 42.886719 67.570312 42.773438 C 68.847656 42.691406 70.136719 42.417969 71.417969 42.253906 C 74.617188 41.921875 77.757812 41.117188 80.730469 39.871094 C 82.375 39.207031 83.863281 38.25 85.132812 37.019531 C 87.070312 35.027344 88.027344 32.605469 88.796875 30.042969 C 89.367188 28.160156 89.003906 26.386719 88.214844 24.667969 C 87.425781 22.949219 86.074219 21.980469 84.394531 21.363281 C 82.472656 20.636719 80.546875 19.992188 78.59375 19.386719 C 75.929688 18.574219 73.386719 17.589844 71.117188 15.949219 C 70.398438 15.441406 69.625 14.964844 68.871094 14.527344 C 65.058594 12.289062 61.480469 9.632812 58.234375 6.644531 C 56.503906 5.058594 54.625 3.644531 52.59375 2.449219 C 50.207031 0.957031 47.300781 0.546875 44.582031 1.332031 C 40.335938 2.421875 37.445312 4.945312 36.140625 9.191406 C 35.195312 12.269531 35.984375 14.832031 38.515625 16.851562 C 39.675781 17.753906 40.832031 18.6875 42.015625 19.582031 C 43.929688 21.054688 45.773438 22.617188 48.039062 23.570312 C 48.464844 23.769531 48.816406 24.09375 49.054688 24.488281 C 49.703125 25.472656 50.269531 26.484375 50.75 27.574219 C 51.828125 30.320312 53.085938 32.980469 54.523438 35.558594 Z M 54.683594 28.535156 C 53.921875 26.902344 53.148438 25.25 52.351562 23.558594 C 52.210938 23.285156 52.070312 23.011719 51.921875 22.769531 C 51.878906 22.695312 51.796875 22.566406 51.769531 22.558594 C 51.128906 22.640625 51.148438 22.039062 50.90625 21.726562 C 50.441406 21.089844 49.964844 20.429688 49.445312 19.828125 C 48.550781 18.859375 47.84375 17.730469 47.347656 16.496094 C 46.609375 14.3125 47.355469 11.917969 49.191406 10.523438 C 51.519531 8.800781 54.785156 9.042969 56.824219 11.101562 C 58.714844 12.996094 60.855469 14.585938 62.972656 16.214844 C 64.363281 17.289062 65.800781 18.308594 67.175781 19.390625 C 69.65625 21.414062 72.664062 22.707031 75.84375 23.101562 C 77.296875 23.269531 78.671875 23.761719 79.902344 24.527344 C 81.507812 25.570312 82.058594 26.945312 81.574219 28.800781 C 81.417969 29.382812 81.167969 29.941406 80.828125 30.429688 C 79.792969 32.054688 78.273438 33.128906 76.703125 34.160156 C 74.167969 35.753906 71.308594 36.769531 68.328125 37.125 C 67.050781 37.289062 65.746094 37.082031 64.574219 36.539062 C 63.285156 35.96875 62.003906 35.417969 60.746094 34.773438 C 59.097656 33.957031 57.863281 32.636719 56.703125 31.273438 C 55.984375 30.429688 55.367188 29.5 54.652344 28.527344 Z M 55.242188 28.195312 C 55.949219 29.148438 56.558594 30.027344 57.234375 30.847656 C 58.308594 32.109375 59.457031 33.332031 60.941406 34.089844 C 62.273438 34.765625 63.65625 35.359375 65.019531 35.964844 C 66.136719 36.460938 67.375 36.605469 68.566406 36.417969 C 72.175781 35.964844 75.574219 34.488281 78.394531 32.191406 C 79.382812 31.460938 80.1875 30.511719 80.730469 29.390625 C 81.554688 27.460938 81.140625 26.023438 79.410156 24.976562 C 79.066406 24.75 78.699219 24.566406 78.316406 24.441406 C 77.359375 24.125 76.367188 23.882812 75.378906 23.691406 C 72.683594 23.332031 70.140625 22.296875 67.9375 20.691406 C 66.902344 19.914062 65.914062 19.082031 64.839844 18.328125 C 61.746094 16.089844 58.632812 13.867188 55.925781 11.136719 C 55.1875 10.382812 54.15625 9.988281 53.101562 10.0625 C 52.429688 10.089844 51.769531 10.183594 51.101562 10.304688 C 48.925781 10.757812 46.882812 13.917969 47.957031 16.28125 C 48.492188 17.414062 49.15625 18.46875 49.960938 19.410156 C 50.515625 20.070312 51.003906 20.796875 51.515625 21.511719 C 51.714844 21.796875 51.75 22.234375 52.238281 22.195312 C 52.304688 22.179688 52.40625 22.347656 52.476562 22.460938 C 52.644531 22.742188 52.828125 23.039062 52.941406 23.355469 C 53.726562 25.023438 54.480469 26.6875 55.214844 28.238281 Z M 55.242188 28.195312"/></g></g></g></g></g></g></svg>