<svg xmlns="http://www.w3.org/2000/svg" xmlns:xlink="http://www.w3.org/1999/xlink" width="375" viewBox="0 0 375 375" height="375" version="1.0"><defs><clipPath id="a"><path d="M 147 128.671875 L 228 128.671875 L 228 208.171875 L 147 208.171875 Z M 147 128.671875"/></clipPath><clipPath id="b"><path d="M 210.542969 128.671875 C 203.949219 128.671875 198.582031 134.050781 198.582031 140.667969 C 198.582031 147.28125 203.949219 152.664062 210.542969 152.664062 C 217.140625 152.664062 222.507812 147.28125 222.507812 140.667969 C 222.507812 134.050781 217.140625 128.671875 210.542969 128.671875 Z M 210.542969 151.382812 C 204.65625 151.382812 199.863281 146.574219 199.863281 140.667969 C 199.863281 134.757812 204.65625 129.953125 210.542969 129.953125 C 216.433594 129.953125 221.226562 134.757812 221.226562 140.667969 C 221.226562 146.574219 216.433594 151.382812 210.542969 151.382812 Z M 217.097656 152.832031 C 216.90625 152.773438 216.691406 152.808594 216.527344 152.929688 C 216.503906 152.949219 213.890625 154.875 210.683594 154.929688 C 210.636719 154.921875 210.589844 154.917969 210.542969 154.917969 C 207.273438 154.917969 204.585938 152.933594 204.558594 152.914062 C 204.46875 152.847656 204.359375 152.804688 204.25 152.792969 C 203.742188 152.726562 198.988281 152.644531 187.484375 166.65625 C 176 152.644531 171.265625 152.722656 170.722656 152.792969 C 170.613281 152.804688 170.503906 152.847656 170.414062 152.914062 C 170.390625 152.933594 167.703125 154.917969 164.429688 154.917969 C 164.386719 154.917969 164.339844 154.921875 164.296875 154.929688 C 161.085938 154.878906 158.472656 152.949219 158.445312 152.929688 C 158.28125 152.808594 158.070312 152.769531 157.878906 152.832031 C 157.574219 152.921875 150.414062 155.1875 148.230469 165.398438 C 148.117188 166.035156 145.496094 181.027344 148.800781 184.96875 C 149.386719 185.667969 150.121094 186.023438 150.984375 186.023438 C 154.542969 186.023438 154.582031 183.597656 154.695312 177.109375 C 154.742188 174.355469 154.808594 170.609375 155.144531 165.828125 C 155.347656 165.691406 155.660156 165.582031 156.007812 165.808594 L 156.007812 205.257812 C 156.007812 205.34375 156.023438 205.429688 156.058594 205.511719 C 156.664062 206.914062 157.949219 207.875 159.414062 208.023438 C 159.546875 208.039062 159.679688 208.042969 159.8125 208.042969 C 161.421875 208.042969 162.910156 207.066406 163.601562 205.519531 C 163.636719 205.433594 163.65625 205.347656 163.65625 205.257812 L 163.65625 187.09375 C 163.875 186.921875 164.183594 186.734375 164.417969 186.734375 C 164.539062 186.734375 164.796875 186.789062 165.207031 187.09375 L 165.207031 205.242188 C 165.207031 205.332031 165.222656 205.417969 165.261719 205.5 C 166.007812 207.175781 167.703125 208.191406 169.449219 208.007812 C 170.914062 207.859375 172.195312 206.894531 172.804688 205.492188 C 172.835938 205.414062 172.855469 205.328125 172.855469 205.242188 L 172.855469 165.789062 C 173.316406 165.488281 173.722656 165.789062 173.882812 165.945312 L 173.925781 165.902344 C 174.511719 166.628906 176.601562 168.855469 184.070312 176.816406 C 185.21875 178.042969 186.777344 178.699219 188.339844 178.605469 C 190.253906 178.496094 191.515625 177.367188 191.925781 175.429688 C 194.453125 172.738281 198.503906 168.597656 200.246094 166.808594 C 200.683594 166.363281 200.9375 166.105469 201.082031 165.9375 L 201.089844 165.945312 C 201.09375 165.941406 201.394531 165.660156 201.738281 165.660156 C 201.867188 165.660156 201.992188 165.703125 202.121094 165.789062 L 202.121094 205.242188 C 202.121094 205.328125 202.136719 205.414062 202.171875 205.496094 C 202.777344 206.894531 204.0625 207.859375 205.527344 208.007812 C 207.277344 208.191406 208.96875 207.179688 209.714844 205.5 C 209.75 205.417969 209.769531 205.332031 209.769531 205.242188 L 209.769531 187.09375 C 210.179688 186.789062 210.433594 186.734375 210.542969 186.734375 C 210.785156 186.734375 211.101562 186.925781 211.320312 187.09375 L 211.320312 205.257812 C 211.320312 205.347656 211.335938 205.433594 211.375 205.515625 C 212.0625 207.066406 213.554688 208.042969 215.164062 208.042969 C 215.292969 208.042969 215.429688 208.035156 215.5625 208.023438 C 217.023438 207.875 218.3125 206.914062 218.914062 205.511719 C 218.949219 205.429688 218.96875 205.34375 218.96875 205.257812 L 218.96875 165.808594 C 219.3125 165.582031 219.625 165.695312 219.832031 165.828125 C 220.167969 170.609375 220.234375 174.355469 220.28125 177.109375 C 220.390625 183.597656 220.433594 186.023438 223.988281 186.023438 C 224.851562 186.023438 225.585938 185.667969 226.175781 184.96875 C 229.480469 181.027344 226.855469 166.035156 226.738281 165.375 C 224.5625 155.1875 217.402344 152.921875 217.097656 152.832031 Z M 188.269531 177.328125 C 187.085938 177.394531 185.894531 176.890625 185.003906 175.941406 C 180.238281 170.859375 175.082031 165.359375 174.828125 165.078125 C 174.816406 165.066406 174.804688 165.054688 174.792969 165.039062 C 174.726562 164.972656 174.109375 164.378906 173.238281 164.378906 C 172.867188 164.378906 172.308594 164.496094 171.761719 165.039062 C 171.640625 165.160156 171.574219 165.324219 171.574219 165.492188 L 171.574219 205.101562 C 171.132812 206.015625 170.28125 206.636719 169.320312 206.734375 C 168.15625 206.855469 167.03125 206.199219 166.484375 205.097656 L 166.484375 186.785156 C 166.484375 186.578125 166.386719 186.382812 166.214844 186.265625 L 166.21875 186.265625 C 165.59375 185.738281 164.996094 185.464844 164.429688 185.453125 C 163.484375 185.453125 162.652344 186.257812 162.5625 186.351562 C 162.441406 186.472656 162.375 186.632812 162.375 186.800781 L 162.375 205.113281 C 161.828125 206.214844 160.707031 206.871094 159.542969 206.75 C 158.578125 206.652344 157.726562 206.03125 157.285156 205.117188 L 157.285156 165.511719 C 157.285156 165.339844 157.21875 165.175781 157.097656 165.058594 C 156.554688 164.511719 155.996094 164.398438 155.625 164.398438 C 154.753906 164.398438 154.136719 164.992188 154.070312 165.058594 C 153.960938 165.167969 153.894531 165.3125 153.882812 165.464844 C 153.527344 170.410156 153.460938 174.269531 153.414062 177.085938 C 153.296875 183.78125 153.140625 184.742188 150.984375 184.742188 C 150.507812 184.742188 150.125 184.554688 149.78125 184.144531 C 147.355469 181.253906 148.75 169.792969 149.488281 165.644531 C 151.289062 157.222656 156.65625 154.664062 157.964844 154.15625 C 158.800781 154.710938 161.34375 156.214844 164.429688 156.214844 C 164.480469 156.214844 164.527344 156.207031 164.578125 156.195312 C 167.730469 156.148438 170.289062 154.558594 170.996094 154.074219 C 171.917969 154.183594 177.507812 155.519531 189.84375 171.710938 C 190.589844 172.691406 190.90625 173.890625 190.714844 175.003906 C 190.457031 176.488281 189.65625 177.25 188.269531 177.328125 Z M 225.191406 184.144531 C 224.851562 184.554688 224.46875 184.742188 223.988281 184.742188 C 221.835938 184.742188 221.675781 183.78125 221.5625 177.085938 C 221.511719 174.269531 221.445312 170.410156 221.089844 165.464844 C 221.078125 165.3125 221.015625 165.167969 220.90625 165.058594 C 220.839844 164.992188 220.222656 164.398438 219.351562 164.398438 C 218.980469 164.398438 218.421875 164.511719 217.875 165.058594 C 217.753906 165.179688 217.6875 165.339844 217.6875 165.511719 L 217.6875 205.117188 C 217.246094 206.03125 216.394531 206.652344 215.433594 206.75 C 214.269531 206.871094 213.144531 206.214844 212.601562 205.113281 L 212.601562 186.800781 C 212.601562 186.632812 212.53125 186.46875 212.414062 186.351562 C 212.320312 186.257812 211.492188 185.453125 210.527344 185.453125 C 209.980469 185.464844 209.390625 185.734375 208.753906 186.269531 C 208.585938 186.390625 208.488281 186.582031 208.488281 186.785156 L 208.488281 205.097656 C 207.941406 206.199219 206.816406 206.851562 205.65625 206.734375 C 204.695312 206.636719 203.839844 206.015625 203.402344 205.101562 L 203.402344 165.492188 C 203.402344 165.324219 203.335938 165.160156 203.214844 165.039062 C 202.667969 164.492188 202.109375 164.378906 201.738281 164.378906 C 200.867188 164.378906 200.25 164.972656 200.183594 165.039062 C 200.171875 165.050781 200.164062 165.058594 200.15625 165.066406 C 200.097656 165.132812 199.796875 165.4375 199.332031 165.914062 C 197.796875 167.484375 194.480469 170.875 191.976562 173.507812 C 191.832031 172.597656 191.453125 171.710938 190.859375 170.933594 C 189.976562 169.773438 189.125 168.6875 188.308594 167.667969 C 198.460938 155.257812 203.179688 154.164062 203.976562 154.070312 C 204.679688 154.550781 207.238281 156.148438 210.394531 156.195312 C 210.445312 156.207031 210.492188 156.210938 210.542969 156.210938 C 213.628906 156.210938 216.167969 154.714844 217.007812 154.160156 C 218.296875 154.671875 223.703125 157.292969 225.480469 165.621094 C 226.222656 169.792969 227.621094 181.253906 225.191406 184.144531 Z M 164.429688 152.664062 C 171.027344 152.664062 176.394531 147.28125 176.394531 140.667969 C 176.394531 134.050781 171.027344 128.671875 164.429688 128.671875 C 157.835938 128.671875 152.46875 134.050781 152.46875 140.667969 C 152.46875 147.28125 157.835938 152.664062 164.429688 152.664062 Z M 164.429688 129.953125 C 170.320312 129.953125 175.113281 134.757812 175.113281 140.667969 C 175.113281 146.574219 170.320312 151.382812 164.429688 151.382812 C 158.539062 151.382812 153.75 146.578125 153.75 140.667969 C 153.75 134.757812 158.542969 129.953125 164.429688 129.953125 Z M 164.429688 129.953125"/></clipPath><linearGradient x1="62.987" gradientTransform="matrix(.6406 0 0 .6401 147.138 128.671)" y1="0" x2="62.987" gradientUnits="userSpaceOnUse" y2="124.2" xlink:type="simple" xlink:actuate="onLoad" id="c" xlink:show="other"><stop stop-color="#DB2B39" offset="0"/><stop stop-color="#DB2C3A" offset=".004"/><stop stop-color="#DB2D3B" offset=".008"/><stop stop-color="#DB2E3B" offset=".012"/><stop stop-color="#DB2E3C" offset=".016"/><stop stop-color="#DB2F3D" offset=".02"/><stop stop-color="#DB303D" offset=".023"/><stop stop-color="#DB313E" offset=".027"/><stop stop-color="#DB323F" offset=".031"/><stop stop-color="#DB3340" offset=".035"/><stop stop-color="#DB3340" offset=".039"/><stop stop-color="#DB3441" offset=".043"/><stop stop-color="#DB3542" offset=".047"/><stop stop-color="#DB3643" offset=".051"/><stop stop-color="#DB3743" offset=".055"/><stop stop-color="#DB3844" offset=".059"/><stop stop-color="#DB3845" offset=".063"/><stop stop-color="#DB3945" offset=".066"/><stop stop-color="#DB3A46" offset=".07"/><stop stop-color="#DB3B47" offset=".074"/><stop stop-color="#DB3C48" offset=".078"/><stop stop-color="#DB3D48" offset=".082"/><stop stop-color="#DB3D49" offset=".086"/><stop stop-color="#DA3E4A" offset=".09"/><stop stop-color="#DA3F4B" offset=".094"/><stop stop-color="#DA404B" offset=".098"/><stop stop-color="#DA414C" offset=".102"/><stop stop-color="#DA414D" offset=".105"/><stop stop-color="#DA424D" offset=".109"/><stop stop-color="#DA434E" offset=".113"/><stop stop-color="#DA444F" offset=".117"/><stop stop-color="#DA4550" offset=".121"/><stop stop-color="#DA4650" offset=".125"/><stop stop-color="#DA4651" offset=".129"/><stop stop-color="#DA4752" offset=".133"/><stop stop-color="#DA4853" offset=".137"/><stop stop-color="#DA4953" offset=".141"/><stop stop-color="#DA4A54" offset=".145"/><stop stop-color="#DA4B55" offset=".148"/><stop stop-color="#DA4B55" offset=".152"/><stop stop-color="#DA4C56" offset=".156"/><stop stop-color="#DA4D57" offset=".16"/><stop stop-color="#DA4E58" offset=".164"/><stop stop-color="#DA4F58" offset=".168"/><stop stop-color="#DA5059" offset=".172"/><stop stop-color="#DA505A" offset=".176"/><stop stop-color="#DA515B" offset=".18"/><stop stop-color="#DA525B" offset=".184"/><stop stop-color="#DA535C" offset=".188"/><stop stop-color="#DA545D" offset=".191"/><stop stop-color="#DA555D" offset=".195"/><stop stop-color="#DA555E" offset=".199"/><stop stop-color="#DA565F" offset=".203"/><stop stop-color="#DA5760" offset=".207"/><stop stop-color="#DA5860" offset=".211"/><stop stop-color="#DA5961" offset=".215"/><stop stop-color="#DA5A62" offset=".219"/><stop stop-color="#DA5A63" offset=".223"/><stop stop-color="#DA5B63" offset=".227"/><stop stop-color="#DA5C64" offset=".23"/><stop stop-color="#DA5D65" offset=".234"/><stop stop-color="#DA5E65" offset=".238"/><stop stop-color="#DA5E66" offset=".242"/><stop stop-color="#DA5F67" offset=".246"/><stop stop-color="#DA6068" offset=".25"/><stop stop-color="#D96168" offset=".254"/><stop stop-color="#D96269" offset=".258"/><stop stop-color="#D9636A" offset=".262"/><stop stop-color="#D9636B" offset=".266"/><stop stop-color="#D9646B" offset=".27"/><stop stop-color="#D9656C" offset=".273"/><stop stop-color="#D9666D" offset=".277"/><stop stop-color="#D9676D" offset=".281"/><stop stop-color="#D9686E" offset=".285"/><stop stop-color="#D9686F" offset=".289"/><stop stop-color="#D96970" offset=".293"/><stop stop-color="#D96A70" offset=".297"/><stop stop-color="#D96B71" offset=".301"/><stop stop-color="#D96C72" offset=".305"/><stop stop-color="#D96D73" offset=".309"/><stop stop-color="#D96D73" offset=".313"/><stop stop-color="#D96E74" offset=".316"/><stop stop-color="#D96F75" offset=".32"/><stop stop-color="#D97075" offset=".324"/><stop stop-color="#D97176" offset=".328"/><stop stop-color="#D97277" offset=".332"/><stop stop-color="#D97278" offset=".336"/><stop stop-color="#D97378" offset=".34"/><stop stop-color="#D97479" offset=".344"/><stop stop-color="#D9757A" offset=".348"/><stop stop-color="#D9767B" offset=".352"/><stop stop-color="#D9777B" offset=".355"/><stop stop-color="#D9777C" offset=".359"/><stop stop-color="#D9787D" offset=".363"/><stop stop-color="#D9797D" offset=".367"/><stop stop-color="#D97A7E" offset=".371"/><stop stop-color="#D97B7F" offset=".375"/><stop stop-color="#D97C80" offset=".379"/><stop stop-color="#D97C80" offset=".383"/><stop stop-color="#D97D81" offset=".387"/><stop stop-color="#D97E82" offset=".391"/><stop stop-color="#D97F83" offset=".395"/><stop stop-color="#D98083" offset=".398"/><stop stop-color="#D98084" offset=".402"/><stop stop-color="#D98185" offset=".406"/><stop stop-color="#D98285" offset=".41"/><stop stop-color="#D98386" offset=".414"/><stop stop-color="#D88487" offset=".418"/><stop stop-color="#D88588" offset=".422"/><stop stop-color="#D88588" offset=".426"/><stop stop-color="#D88689" offset=".43"/><stop stop-color="#D8878A" offset=".434"/><stop stop-color="#D8888B" offset=".438"/><stop stop-color="#D8898B" offset=".441"/><stop stop-color="#D88A8C" offset=".445"/><stop stop-color="#D88A8D" offset=".449"/><stop stop-color="#D88B8D" offset=".453"/><stop stop-color="#D88C8E" offset=".457"/><stop stop-color="#D88D8F" offset=".461"/><stop stop-color="#D88E90" offset=".465"/><stop stop-color="#D88F90" offset=".469"/><stop stop-color="#D88F91" offset=".473"/><stop stop-color="#D89092" offset=".477"/><stop stop-color="#D89193" offset=".48"/><stop stop-color="#D89293" offset=".484"/><stop stop-color="#D89394" offset=".488"/><stop stop-color="#D89495" offset=".492"/><stop stop-color="#D89495" offset=".496"/><stop stop-color="#D89596" offset=".5"/><stop stop-color="#D89697" offset=".504"/><stop stop-color="#D89798" offset=".508"/><stop stop-color="#D89898" offset=".512"/><stop stop-color="#D89999" offset=".516"/><stop stop-color="#D8999A" offset=".52"/><stop stop-color="#D89A9B" offset=".523"/><stop stop-color="#D89B9B" offset=".527"/><stop stop-color="#D89C9C" offset=".531"/><stop stop-color="#D89D9D" offset=".535"/><stop stop-color="#D89E9D" offset=".539"/><stop stop-color="#D89E9E" offset=".543"/><stop stop-color="#D89F9F" offset=".547"/><stop stop-color="#D8A0A0" offset=".551"/><stop stop-color="#D8A1A0" offset=".555"/><stop stop-color="#D8A2A1" offset=".559"/><stop stop-color="#D8A2A2" offset=".563"/><stop stop-color="#D8A3A3" offset=".566"/><stop stop-color="#D8A4A3" offset=".57"/><stop stop-color="#D8A5A4" offset=".574"/><stop stop-color="#D7A6A5" offset=".578"/><stop stop-color="#D7A7A5" offset=".582"/><stop stop-color="#D7A7A6" offset=".586"/><stop stop-color="#D7A8A7" offset=".59"/><stop stop-color="#D7A9A8" offset=".594"/><stop stop-color="#D7AAA8" offset=".598"/><stop stop-color="#D7ABA9" offset=".602"/><stop stop-color="#D7ACAA" offset=".605"/><stop stop-color="#D7ACAB" offset=".609"/><stop stop-color="#D7ADAB" offset=".613"/><stop stop-color="#D7AEAC" offset=".617"/><stop stop-color="#D7AFAD" offset=".621"/><stop stop-color="#D7B0AD" offset=".625"/><stop stop-color="#D7B1AE" offset=".629"/><stop stop-color="#D7B1AF" offset=".633"/><stop stop-color="#D7B2B0" offset=".637"/><stop stop-color="#D7B3B0" offset=".641"/><stop stop-color="#D7B4B1" offset=".645"/><stop stop-color="#D7B5B2" offset=".648"/><stop stop-color="#D7B6B3" offset=".652"/><stop stop-color="#D7B6B3" offset=".656"/><stop stop-color="#D7B7B4" offset=".66"/><stop stop-color="#D7B8B5" offset=".664"/><stop stop-color="#D7B9B5" offset=".668"/><stop stop-color="#D7BAB6" offset=".672"/><stop stop-color="#D7BBB7" offset=".676"/><stop stop-color="#D7BBB8" offset=".68"/><stop stop-color="#D7BCB8" offset=".684"/><stop stop-color="#D7BDB9" offset=".688"/><stop stop-color="#D7BEBA" offset=".691"/><stop stop-color="#D7BFBB" offset=".695"/><stop stop-color="#D7BFBB" offset=".699"/><stop stop-color="#D7C0BC" offset=".703"/><stop stop-color="#D7C1BD" offset=".707"/><stop stop-color="#D7C2BD" offset=".711"/><stop stop-color="#D7C3BE" offset=".715"/><stop stop-color="#D7C4BF" offset=".719"/><stop stop-color="#D7C4C0" offset=".723"/><stop stop-color="#D7C5C0" offset=".727"/><stop stop-color="#D7C6C1" offset=".73"/><stop stop-color="#D7C7C2" offset=".734"/><stop stop-color="#D7C8C3" offset=".738"/><stop stop-color="#D6C9C3" offset=".742"/><stop stop-color="#D6C9C4" offset=".746"/><stop stop-color="#D6CAC5" offset=".75"/><stop stop-color="#D6CBC5" offset=".754"/><stop stop-color="#D6CCC6" offset=".758"/><stop stop-color="#D6CDC7" offset=".762"/><stop stop-color="#D6CEC8" offset=".766"/><stop stop-color="#D6CEC8" offset=".77"/><stop stop-color="#D6CFC9" offset=".773"/><stop stop-color="#D6D0CA" offset=".777"/><stop stop-color="#D6D1CB" offset=".781"/><stop stop-color="#D6D2CB" offset=".785"/><stop stop-color="#D6D3CC" offset=".789"/><stop stop-color="#D6D3CD" offset=".793"/><stop stop-color="#D6D4CD" offset=".797"/><stop stop-color="#D6D5CE" offset=".801"/><stop stop-color="#D6D6CF" offset=".805"/><stop stop-color="#D6D7D0" offset=".809"/><stop stop-color="#D6D8D0" offset=".813"/><stop stop-color="#D6D8D1" offset=".816"/><stop stop-color="#D6D9D2" offset=".82"/><stop stop-color="#D6DAD3" offset=".824"/><stop stop-color="#D6DBD3" offset=".828"/><stop stop-color="#D6DCD4" offset=".832"/><stop stop-color="#D6DDD5" offset=".836"/><stop stop-color="#D6DDD5" offset=".84"/><stop stop-color="#D6DED6" offset=".844"/><stop stop-color="#D6DFD7" offset=".848"/><stop stop-color="#D6E0D8" offset=".852"/><stop stop-color="#D6E1D8" offset=".855"/><stop stop-color="#D6E1D9" offset=".859"/><stop stop-color="#D6E2DA" offset=".863"/><stop stop-color="#D6E3DB" offset=".867"/><stop stop-color="#D6E4DB" offset=".871"/><stop stop-color="#D6E5DC" offset=".875"/><stop stop-color="#D6E6DD" offset=".879"/><stop stop-color="#D6E6DD" offset=".883"/><stop stop-color="#D6E7DE" offset=".887"/><stop stop-color="#D6E8DF" offset=".891"/><stop stop-color="#D6E9E0" offset=".895"/><stop stop-color="#D6EAE0" offset=".898"/><stop stop-color="#D6EBE1" offset=".902"/><stop stop-color="#D5EBE2" offset=".906"/><stop stop-color="#D5ECE3" offset=".91"/><stop stop-color="#D5EDE3" offset=".914"/><stop stop-color="#D5EEE4" offset=".918"/><stop stop-color="#D5EFE5" offset=".922"/><stop stop-color="#D5F0E5" offset=".926"/><stop stop-color="#D5F0E6" offset=".93"/><stop stop-color="#D5F1E7" offset=".934"/><stop stop-color="#D5F2E8" offset=".938"/><stop stop-color="#D5F3E8" offset=".941"/><stop stop-color="#D5F4E9" offset=".945"/><stop stop-color="#D5F5EA" offset=".949"/><stop stop-color="#D5F5EB" offset=".953"/><stop stop-color="#D5F6EB" offset=".957"/><stop stop-color="#D5F7EC" offset=".961"/><stop stop-color="#D5F8ED" offset=".965"/><stop stop-color="#D5F9ED" offset=".969"/><stop stop-color="#D5FAEE" offset=".973"/><stop stop-color="#D5FAEF" offset=".977"/><stop stop-color="#D5FBF0" offset=".98"/><stop stop-color="#D5FCF0" offset=".984"/><stop stop-color="#D5FDF1" offset=".988"/><stop stop-color="#D5FEF2" offset=".992"/><stop stop-color="#D5FEF2" offset=".996"/><stop stop-color="#D5FFF3" offset="1"/></linearGradient></defs><path fill="#FFF" d="M-37.5 -37.5H412.5V412.5H-37.5z"/><path fill="#FFF" d="M-37.5 -37.5H412.5V412.5H-37.5z"/><path fill="#FFF" d="M-37.5 -37.5H412.5V412.5H-37.5z"/><g clip-path="url(#a)"><g clip-path="url(#b)"><path fill="url(#c)" d="M 145.496094 128.671875 L 145.496094 208.171875 L 229.464844 208.171875 L 229.464844 128.671875 Z M 145.496094 128.671875"/></g></g><g fill="#D5FFF3"><g><g><path d="M 9.746094 0.0546875 C 10.011719 0 10.277344 -0.0546875 10.542969 -0.132812 C 10.808594 -0.1875 11.046875 -0.34375 11.3125 -0.453125 C 11.550781 -0.558594 11.816406 -0.609375 12.058594 -0.769531 C 12.296875 -0.902344 12.535156 -1.0625 12.746094 -1.222656 C 12.988281 -1.433594 13.121094 -1.671875 13.277344 -1.859375 C 13.464844 -2.097656 13.652344 -2.308594 13.703125 -2.574219 C 13.757812 -2.816406 13.757812 -3.105469 13.625 -3.398438 C 13.542969 -3.613281 13.332031 -3.796875 13.121094 -4.0625 C 12.90625 -4.328125 12.722656 -4.515625 12.480469 -4.542969 C 12.214844 -4.566406 11.976562 -4.382812 11.738281 -4.222656 C 11.5 -4.089844 11.285156 -3.929688 11.046875 -3.746094 C 10.835938 -3.558594 10.621094 -3.371094 10.382812 -3.238281 C 10.199219 -3.132812 9.960938 -3.082031 9.71875 -3 C 9.507812 -2.949219 9.269531 -2.867188 9.03125 -2.839844 C 8.816406 -2.816406 8.550781 -2.867188 8.339844 -2.867188 C 8.101562 -2.894531 7.859375 -2.921875 7.648438 -3 C 7.410156 -3.054688 7.171875 -3.082031 6.957031 -3.1875 C 6.71875 -3.292969 6.53125 -3.480469 6.347656 -3.613281 C 6.136719 -3.769531 5.949219 -3.929688 5.789062 -4.144531 C 5.628906 -4.328125 5.445312 -4.515625 5.339844 -4.753906 C 5.207031 -4.964844 5.097656 -5.207031 4.992188 -5.445312 C 4.914062 -5.683594 4.832031 -5.921875 4.753906 -6.160156 C 4.699219 -6.398438 4.699219 -6.664062 4.648438 -6.929688 C 4.621094 -7.171875 4.59375 -7.4375 4.59375 -7.675781 C 4.566406 -7.941406 4.488281 -8.179688 4.488281 -8.417969 C 4.488281 -8.683594 4.433594 -8.949219 4.433594 -9.1875 C 4.460938 -9.453125 4.515625 -9.71875 4.542969 -9.960938 C 4.566406 -10.226562 4.566406 -10.488281 4.621094 -10.730469 C 4.675781 -10.996094 4.832031 -11.234375 4.914062 -11.472656 C 4.992188 -11.710938 5.074219 -11.949219 5.207031 -12.164062 C 5.339844 -12.402344 5.417969 -12.667969 5.605469 -12.855469 C 5.761719 -13.039062 5.976562 -13.199219 6.214844 -13.332031 C 6.398438 -13.464844 6.640625 -13.625 6.90625 -13.703125 C 7.117188 -13.785156 7.410156 -13.757812 7.675781 -13.785156 C 7.914062 -13.808594 8.125 -13.808594 8.367188 -13.785156 C 8.605469 -13.757812 8.816406 -13.730469 9.03125 -13.675781 C 9.269531 -13.597656 9.480469 -13.542969 9.695312 -13.4375 C 9.90625 -13.359375 10.117188 -13.226562 10.304688 -13.09375 C 10.488281 -12.960938 10.675781 -12.828125 10.863281 -12.667969 C 11.128906 -12.457031 11.339844 -12.269531 11.550781 -12.164062 C 11.84375 -12.003906 12.109375 -12.03125 12.402344 -12.136719 C 12.589844 -12.214844 12.800781 -12.402344 13.066406 -12.640625 C 13.304688 -12.855469 13.542969 -12.988281 13.652344 -13.171875 C 13.785156 -13.359375 13.703125 -13.597656 13.625 -13.917969 C 13.542969 -14.15625 13.4375 -14.367188 13.304688 -14.554688 C 13.144531 -14.765625 13.011719 -14.976562 12.855469 -15.136719 C 12.667969 -15.324219 12.429688 -15.457031 12.214844 -15.617188 C 12.003906 -15.800781 11.84375 -16.015625 11.605469 -16.148438 C 11.394531 -16.28125 11.128906 -16.386719 10.886719 -16.492188 C 10.648438 -16.597656 10.382812 -16.625 10.117188 -16.679688 C 9.878906 -16.757812 9.640625 -16.835938 9.402344 -16.890625 C 9.136719 -16.917969 8.898438 -16.890625 8.632812 -16.890625 C 8.390625 -16.917969 8.152344 -16.945312 7.914062 -16.945312 C 7.648438 -16.917969 7.410156 -16.945312 7.144531 -16.917969 C 6.90625 -16.890625 6.664062 -16.785156 6.425781 -16.730469 C 6.1875 -16.679688 5.949219 -16.597656 5.710938 -16.519531 C 5.472656 -16.414062 5.230469 -16.359375 5.019531 -16.226562 C 4.808594 -16.121094 4.621094 -15.933594 4.410156 -15.800781 C 4.222656 -15.640625 4.035156 -15.484375 3.851562 -15.324219 C 3.664062 -15.164062 3.480469 -15.003906 3.320312 -14.820312 C 3.132812 -14.605469 3 -14.394531 2.839844 -14.183594 C 2.707031 -13.96875 2.550781 -13.757812 2.441406 -13.519531 C 2.335938 -13.277344 2.257812 -13.039062 2.175781 -12.773438 C 2.097656 -12.535156 1.964844 -12.324219 1.886719 -12.058594 C 1.804688 -11.816406 1.78125 -11.550781 1.726562 -11.285156 C 1.648438 -11.046875 1.59375 -10.78125 1.566406 -10.542969 C 1.515625 -10.277344 1.515625 -10.011719 1.488281 -9.746094 C 1.460938 -9.480469 1.433594 -9.242188 1.433594 -8.976562 C 1.40625 -8.710938 1.433594 -8.445312 1.433594 -8.207031 C 1.433594 -7.941406 1.433594 -7.703125 1.433594 -7.4375 C 1.460938 -7.195312 1.515625 -6.957031 1.539062 -6.71875 C 1.59375 -6.453125 1.566406 -6.214844 1.621094 -5.949219 C 1.699219 -5.710938 1.804688 -5.496094 1.886719 -5.257812 C 1.9375 -4.992188 2.019531 -4.78125 2.125 -4.542969 C 2.203125 -4.300781 2.257812 -4.0625 2.363281 -3.824219 C 2.46875 -3.613281 2.628906 -3.398438 2.734375 -3.1875 C 2.867188 -2.949219 2.949219 -2.707031 3.082031 -2.496094 C 3.214844 -2.308594 3.347656 -2.070312 3.503906 -1.886719 C 3.636719 -1.671875 3.851562 -1.539062 4.035156 -1.355469 C 4.222656 -1.195312 4.382812 -0.984375 4.59375 -0.851562 C 4.78125 -0.691406 5.019531 -0.585938 5.230469 -0.476562 C 5.472656 -0.34375 5.710938 -0.292969 5.949219 -0.210938 C 6.1875 -0.132812 6.425781 -0.078125 6.691406 -0.0273438 C 6.929688 0 7.171875 0.078125 7.410156 0.105469 C 7.675781 0.132812 7.914062 0.1875 8.179688 0.1875 C 8.417969 0.1875 8.65625 0.105469 8.921875 0.078125 C 9.1875 0.078125 9.453125 0.078125 9.746094 0.0546875 Z M 9.746094 0.0546875" transform="translate(105.11 236.985)"/></g></g></g><g fill="#D5FFF3"><g><g><path d="M 14.207031 -9.585938 C 14.207031 -9.800781 14.101562 -10.011719 14.101562 -10.226562 C 14.074219 -10.464844 14.050781 -10.675781 14.023438 -10.886719 C 13.996094 -11.101562 14.023438 -11.339844 13.96875 -11.550781 C 13.890625 -11.792969 13.757812 -12.003906 13.703125 -12.269531 C 13.625 -12.507812 13.570312 -12.746094 13.492188 -12.988281 C 13.410156 -13.226562 13.359375 -13.492188 13.253906 -13.703125 C 13.171875 -13.941406 13.09375 -14.183594 12.960938 -14.421875 C 12.855469 -14.632812 12.722656 -14.871094 12.5625 -15.058594 C 12.429688 -15.269531 12.269531 -15.484375 12.082031 -15.667969 C 11.898438 -15.828125 11.660156 -15.933594 11.445312 -16.09375 C 11.234375 -16.226562 11.019531 -16.359375 10.78125 -16.464844 C 10.570312 -16.570312 10.304688 -16.625 10.066406 -16.703125 C 9.828125 -16.757812 9.585938 -16.835938 9.320312 -16.890625 C 9.082031 -16.945312 8.84375 -16.96875 8.578125 -16.96875 C 8.339844 -16.996094 8.074219 -16.996094 7.835938 -16.996094 C 7.570312 -16.996094 7.328125 -16.996094 7.0625 -16.945312 C 6.824219 -16.917969 6.585938 -16.863281 6.320312 -16.8125 C 6.082031 -16.757812 5.816406 -16.757812 5.578125 -16.679688 C 5.339844 -16.570312 5.125 -16.4375 4.914062 -16.304688 C 4.675781 -16.199219 4.488281 -16.066406 4.277344 -15.90625 C 4.0625 -15.773438 3.796875 -15.695312 3.613281 -15.507812 C 3.425781 -15.351562 3.292969 -15.136719 3.105469 -14.925781 C 2.972656 -14.738281 2.816406 -14.527344 2.683594 -14.316406 C 2.550781 -14.101562 2.46875 -13.835938 2.390625 -13.597656 C 2.285156 -13.386719 2.203125 -13.144531 2.125 -12.878906 C 2.070312 -12.640625 1.964844 -12.402344 1.914062 -12.164062 C 1.859375 -11.898438 1.753906 -11.660156 1.699219 -11.417969 C 1.648438 -11.152344 1.671875 -10.886719 1.648438 -10.648438 C 1.621094 -10.382812 1.59375 -10.144531 1.566406 -9.878906 C 1.539062 -9.640625 1.488281 -9.375 1.488281 -9.136719 C 1.460938 -8.871094 1.460938 -8.632812 1.488281 -8.367188 C 1.488281 -8.101562 1.515625 -7.859375 1.539062 -7.59375 C 1.539062 -7.355469 1.539062 -7.089844 1.566406 -6.824219 C 1.59375 -6.585938 1.648438 -6.347656 1.699219 -6.082031 C 1.753906 -5.84375 1.726562 -5.578125 1.804688 -5.3125 C 1.859375 -5.097656 1.992188 -4.886719 2.046875 -4.648438 C 2.125 -4.410156 2.175781 -4.167969 2.257812 -3.957031 C 2.335938 -3.71875 2.441406 -3.503906 2.550781 -3.292969 C 2.65625 -3.082031 2.761719 -2.867188 2.867188 -2.65625 C 3 -2.441406 3.160156 -2.257812 3.292969 -2.046875 C 3.453125 -1.832031 3.585938 -1.648438 3.769531 -1.460938 C 3.957031 -1.273438 4.144531 -1.089844 4.328125 -0.929688 C 4.515625 -0.769531 4.753906 -0.636719 4.964844 -0.503906 C 5.179688 -0.371094 5.417969 -0.238281 5.628906 -0.132812 C 5.871094 -0.0273438 6.136719 0.0273438 6.375 0.078125 C 6.613281 0.160156 6.878906 0.1875 7.117188 0.238281 C 7.382812 0.265625 7.621094 0.265625 7.886719 0.265625 C 8.125 0.265625 8.390625 0.265625 8.632812 0.210938 C 8.898438 0.1875 9.136719 0.132812 9.375 0.0546875 C 9.613281 -0.0273438 9.851562 -0.105469 10.09375 -0.210938 C 10.332031 -0.320312 10.542969 -0.453125 10.753906 -0.585938 C 10.96875 -0.742188 11.179688 -0.851562 11.394531 -1.035156 C 11.578125 -1.195312 11.792969 -1.328125 11.976562 -1.515625 C 12.136719 -1.699219 12.269531 -1.9375 12.402344 -2.152344 C 12.535156 -2.363281 12.667969 -2.550781 12.800781 -2.761719 C 12.90625 -2.949219 13.039062 -3.160156 13.144531 -3.371094 C 13.253906 -3.585938 13.332031 -3.796875 13.4375 -4.035156 C 13.519531 -4.25 13.570312 -4.488281 13.652344 -4.699219 C 13.730469 -4.941406 13.835938 -5.152344 13.890625 -5.363281 C 13.941406 -5.605469 14.023438 -5.84375 14.074219 -6.082031 C 14.101562 -6.292969 14.128906 -6.53125 14.15625 -6.773438 C 14.183594 -7.011719 14.207031 -7.25 14.234375 -7.488281 C 14.234375 -7.726562 14.234375 -7.96875 14.234375 -8.207031 C 14.234375 -8.445312 14.234375 -8.683594 14.234375 -8.921875 C 14.207031 -9.136719 14.234375 -9.347656 14.207031 -9.585938 Z M 4.25 -8.976562 C 4.277344 -9.214844 4.25 -9.429688 4.277344 -9.667969 C 4.300781 -9.878906 4.300781 -10.117188 4.328125 -10.332031 C 4.355469 -10.570312 4.410156 -10.78125 4.460938 -10.996094 C 4.488281 -11.234375 4.566406 -11.445312 4.621094 -11.660156 C 4.675781 -11.898438 4.699219 -12.164062 4.808594 -12.375 C 4.941406 -12.589844 5.074219 -12.800781 5.207031 -12.988281 C 5.363281 -13.199219 5.578125 -13.359375 5.761719 -13.519531 C 5.949219 -13.652344 6.160156 -13.808594 6.375 -13.917969 C 6.585938 -14.023438 6.824219 -14.15625 7.0625 -14.207031 C 7.304688 -14.289062 7.570312 -14.289062 7.808594 -14.289062 C 8.046875 -14.289062 8.285156 -14.289062 8.523438 -14.207031 C 8.738281 -14.15625 8.949219 -14.023438 9.164062 -13.890625 C 9.375 -13.785156 9.585938 -13.703125 9.773438 -13.542969 C 9.960938 -13.386719 10.09375 -13.171875 10.25 -12.988281 C 10.382812 -12.800781 10.515625 -12.613281 10.648438 -12.375 C 10.753906 -12.191406 10.835938 -11.949219 10.914062 -11.710938 C 10.996094 -11.472656 11.074219 -11.234375 11.128906 -10.996094 C 11.179688 -10.753906 11.234375 -10.515625 11.285156 -10.277344 C 11.3125 -10.011719 11.339844 -9.773438 11.367188 -9.535156 C 11.394531 -9.269531 11.445312 -9.03125 11.472656 -8.789062 C 11.472656 -8.523438 11.445312 -8.285156 11.445312 -8.046875 C 11.445312 -7.78125 11.445312 -7.542969 11.417969 -7.277344 C 11.394531 -7.039062 11.339844 -6.796875 11.285156 -6.53125 C 11.234375 -6.292969 11.179688 -6.054688 11.128906 -5.816406 C 11.046875 -5.578125 10.96875 -5.339844 10.863281 -5.097656 C 10.78125 -4.859375 10.675781 -4.648438 10.570312 -4.460938 C 10.464844 -4.25 10.332031 -4.035156 10.199219 -3.878906 C 10.039062 -3.691406 9.878906 -3.503906 9.695312 -3.371094 C 9.507812 -3.214844 9.296875 -3.132812 9.082031 -3.027344 C 8.871094 -2.921875 8.632812 -2.921875 8.390625 -2.894531 C 8.179688 -2.839844 7.941406 -2.789062 7.703125 -2.816406 C 7.460938 -2.839844 7.222656 -2.867188 7.011719 -2.949219 C 6.773438 -3 6.53125 -3.105469 6.347656 -3.214844 C 6.136719 -3.320312 5.949219 -3.480469 5.789062 -3.636719 C 5.605469 -3.796875 5.445312 -3.984375 5.3125 -4.195312 C 5.179688 -4.382812 5.097656 -4.621094 5.019531 -4.832031 C 4.914062 -5.046875 4.859375 -5.285156 4.78125 -5.523438 C 4.699219 -5.738281 4.621094 -5.976562 4.566406 -6.1875 C 4.515625 -6.425781 4.488281 -6.664062 4.433594 -6.90625 C 4.410156 -7.144531 4.328125 -7.382812 4.300781 -7.59375 C 4.25 -7.835938 4.222656 -8.074219 4.167969 -8.3125 C 4.195312 -8.523438 4.222656 -8.765625 4.25 -8.976562 Z M 4.25 -8.976562" transform="translate(123.778 236.985)"/></g></g></g><g fill="#D5FFF3"><g><g><path d="M 4.832031 -2.789062 C 4.859375 -3 4.78125 -3.238281 4.808594 -3.503906 C 4.808594 -3.746094 4.859375 -3.984375 4.886719 -4.222656 C 4.886719 -4.460938 4.941406 -4.699219 4.941406 -4.941406 C 4.941406 -5.207031 4.886719 -5.445312 4.886719 -5.683594 C 4.914062 -5.921875 4.992188 -6.160156 5.019531 -6.398438 C 5.019531 -6.664062 4.964844 -6.90625 4.964844 -7.117188 C 5.019531 -7.542969 5.097656 -7.835938 5.125 -7.835938 C 5.207031 -7.703125 5.390625 -7.382812 5.578125 -7.039062 C 5.738281 -6.71875 5.871094 -6.375 5.949219 -6.214844 C 6.054688 -6.003906 6.160156 -5.789062 6.265625 -5.578125 C 6.375 -5.363281 6.425781 -5.125 6.507812 -4.914062 C 6.613281 -4.675781 6.691406 -4.460938 6.796875 -4.25 C 6.878906 -4.011719 7.039062 -3.824219 7.144531 -3.613281 C 7.222656 -3.398438 7.277344 -3.160156 7.382812 -2.921875 C 7.488281 -2.707031 7.621094 -2.523438 7.726562 -2.285156 C 7.835938 -2.070312 7.941406 -1.886719 8.046875 -1.671875 C 8.152344 -1.433594 8.285156 -1.222656 8.390625 -1.007812 C 8.472656 -0.851562 8.632812 -0.664062 8.789062 -0.503906 C 8.949219 -0.34375 9.082031 -0.132812 9.269531 -0.0273438 C 9.480469 0.105469 9.71875 0.210938 9.90625 0.210938 C 10.09375 0.210938 10.304688 0.078125 10.488281 -0.078125 C 10.648438 -0.210938 10.78125 -0.398438 10.941406 -0.558594 C 11.101562 -0.71875 11.261719 -0.875 11.394531 -1.035156 C 11.527344 -1.222656 11.578125 -1.433594 11.632812 -1.671875 C 11.710938 -1.914062 11.816406 -2.125 11.898438 -2.335938 C 12.003906 -2.550781 12.058594 -2.761719 12.164062 -2.972656 C 12.242188 -3.214844 12.242188 -3.453125 12.324219 -3.664062 C 12.402344 -3.878906 12.507812 -4.089844 12.613281 -4.300781 C 12.695312 -4.515625 12.746094 -4.726562 12.828125 -4.964844 C 12.90625 -5.179688 13.066406 -5.363281 13.144531 -5.578125 C 13.226562 -5.789062 13.332031 -6.003906 13.410156 -6.214844 C 13.492188 -6.425781 13.570312 -6.640625 13.652344 -6.851562 C 13.730469 -7.0625 13.785156 -7.304688 13.863281 -7.515625 C 13.941406 -7.726562 14.023438 -7.941406 14.101562 -8.152344 C 14.421875 -8.65625 14.394531 -8.207031 14.394531 -7.941406 C 14.394531 -7.703125 14.367188 -7.460938 14.367188 -7.222656 C 14.394531 -7.011719 14.449219 -6.773438 14.472656 -6.53125 C 14.472656 -6.320312 14.527344 -6.082031 14.527344 -5.84375 C 14.554688 -5.628906 14.5 -5.390625 14.5 -5.152344 C 14.527344 -4.914062 14.632812 -4.699219 14.632812 -4.460938 C 14.632812 -4.25 14.605469 -3.984375 14.632812 -3.71875 C 14.632812 -3.480469 14.578125 -3.214844 14.578125 -2.949219 C 14.605469 -2.707031 14.660156 -2.441406 14.6875 -2.203125 C 14.6875 -1.9375 14.605469 -1.671875 14.632812 -1.433594 C 14.632812 -1.167969 14.660156 -0.902344 14.6875 -0.691406 C 14.710938 -0.371094 14.84375 -0.210938 14.976562 -0.105469 C 15.136719 0.0273438 15.324219 0.105469 15.589844 0.078125 C 15.800781 0.078125 16.015625 0 16.28125 -0.0273438 C 16.679688 -0.0546875 16.945312 -0.0546875 17.128906 -0.132812 C 17.316406 -0.265625 17.421875 -0.476562 17.421875 -0.902344 C 17.421875 -1.140625 17.367188 -1.382812 17.367188 -1.621094 C 17.34375 -1.859375 17.34375 -2.097656 17.34375 -2.335938 C 17.34375 -2.574219 17.367188 -2.816406 17.367188 -3.054688 C 17.34375 -3.292969 17.261719 -3.53125 17.261719 -3.769531 C 17.261719 -4.011719 17.234375 -4.25 17.234375 -4.488281 C 17.210938 -4.726562 17.234375 -4.992188 17.234375 -5.230469 C 17.210938 -5.472656 17.210938 -5.710938 17.210938 -5.949219 C 17.183594 -6.1875 17.234375 -6.425781 17.234375 -6.664062 C 17.210938 -6.90625 17.183594 -7.171875 17.15625 -7.410156 C 17.15625 -7.648438 17.210938 -7.886719 17.210938 -8.125 C 17.183594 -8.367188 17.183594 -8.605469 17.15625 -8.84375 C 17.15625 -9.082031 17.15625 -9.320312 17.15625 -9.585938 C 17.15625 -9.828125 17.128906 -10.066406 17.101562 -10.304688 C 17.101562 -10.542969 17.101562 -10.78125 17.101562 -11.019531 C 17.101562 -11.261719 17.078125 -11.5 17.050781 -11.738281 C 17.050781 -11.976562 17.078125 -12.214844 17.050781 -12.457031 C 17.050781 -12.695312 17.023438 -12.933594 17.023438 -13.171875 C 17.023438 -13.410156 17.050781 -13.652344 17.050781 -13.890625 C 17.050781 -14.128906 16.996094 -14.367188 16.96875 -14.605469 C 16.96875 -14.84375 16.96875 -15.085938 16.945312 -15.324219 C 16.945312 -15.5625 16.96875 -15.800781 16.96875 -16.039062 C 16.96875 -16.332031 16.863281 -16.519531 16.703125 -16.652344 C 16.570312 -16.757812 16.386719 -16.863281 16.09375 -16.863281 C 15.882812 -16.863281 15.667969 -16.863281 15.402344 -16.835938 C 15.136719 -16.863281 14.925781 -16.8125 14.738281 -16.730469 C 14.527344 -16.679688 14.316406 -16.570312 14.183594 -16.386719 C 14.074219 -16.199219 13.96875 -15.988281 13.890625 -15.75 C 13.835938 -15.535156 13.808594 -15.296875 13.730469 -15.109375 C 13.652344 -14.871094 13.570312 -14.632812 13.492188 -14.421875 C 13.386719 -14.183594 13.277344 -13.96875 13.199219 -13.757812 C 13.121094 -13.519531 13.011719 -13.304688 12.933594 -13.066406 C 12.828125 -12.855469 12.828125 -12.589844 12.722656 -12.347656 C 12.640625 -12.136719 12.480469 -11.925781 12.402344 -11.710938 C 12.324219 -11.472656 12.296875 -11.234375 12.191406 -10.996094 C 12.109375 -10.78125 12.03125 -10.542969 11.949219 -10.332031 C 11.84375 -10.09375 11.738281 -9.878906 11.660156 -9.640625 C 11.550781 -9.429688 11.472656 -9.1875 11.394531 -8.976562 C 11.3125 -8.738281 11.207031 -8.523438 11.128906 -8.285156 C 11.046875 -8.046875 10.996094 -7.808594 10.914062 -7.59375 C 10.835938 -7.355469 10.703125 -7.144531 10.621094 -6.929688 C 10.542969 -6.71875 10.488281 -6.480469 10.359375 -6.242188 C 10.25 -6.054688 10.066406 -5.894531 9.90625 -5.65625 C 9.800781 -5.472656 9.695312 -5.230469 9.535156 -5.019531 C 9.453125 -5.230469 9.375 -5.496094 9.296875 -5.710938 C 9.214844 -5.949219 9.054688 -6.160156 8.976562 -6.375 C 8.871094 -6.613281 8.816406 -6.851562 8.710938 -7.0625 C 8.632812 -7.304688 8.5 -7.515625 8.417969 -7.753906 C 8.3125 -7.96875 8.3125 -8.234375 8.207031 -8.445312 C 8.125 -8.683594 7.941406 -8.871094 7.859375 -9.109375 C 7.753906 -9.320312 7.726562 -9.585938 7.621094 -9.800781 C 7.542969 -10.039062 7.460938 -10.25 7.382812 -10.488281 C 7.277344 -10.730469 7.171875 -10.941406 7.0625 -11.152344 C 6.984375 -11.394531 6.90625 -11.605469 6.824219 -11.84375 C 6.71875 -12.058594 6.640625 -12.296875 6.558594 -12.535156 C 6.480469 -12.746094 6.347656 -12.960938 6.242188 -13.199219 C 6.160156 -13.410156 6.109375 -13.652344 6.027344 -13.890625 C 5.921875 -14.101562 5.84375 -14.339844 5.738281 -14.578125 C 5.65625 -14.765625 5.523438 -14.953125 5.445312 -15.164062 C 5.363281 -15.402344 5.285156 -15.589844 5.179688 -15.800781 C 5.074219 -16.015625 5.019531 -16.226562 4.859375 -16.386719 C 4.726562 -16.546875 4.515625 -16.597656 4.277344 -16.679688 C 4.089844 -16.703125 3.878906 -16.730469 3.613281 -16.679688 C 3.320312 -16.730469 3.082031 -16.757812 2.894531 -16.703125 C 2.65625 -16.652344 2.496094 -16.519531 2.417969 -16.226562 C 2.335938 -16.066406 2.308594 -15.828125 2.285156 -15.507812 C 2.285156 -15.296875 2.230469 -15.058594 2.230469 -14.792969 C 2.230469 -14.578125 2.285156 -14.316406 2.285156 -14.050781 C 2.285156 -13.808594 2.257812 -13.570312 2.257812 -13.332031 C 2.230469 -13.09375 2.285156 -12.855469 2.285156 -12.640625 C 2.285156 -12.402344 2.257812 -12.164062 2.257812 -11.925781 C 2.257812 -11.683594 2.257812 -11.445312 2.230469 -11.207031 C 2.230469 -10.996094 2.230469 -10.753906 2.230469 -10.515625 C 2.203125 -10.277344 2.203125 -10.039062 2.203125 -9.800781 C 2.175781 -9.585938 2.175781 -9.347656 2.175781 -9.109375 C 2.175781 -8.871094 2.097656 -8.632812 2.070312 -8.390625 C 2.070312 -8.179688 2.125 -7.941406 2.125 -7.703125 C 2.097656 -7.460938 2.097656 -7.222656 2.097656 -6.984375 C 2.097656 -6.746094 1.992188 -6.53125 1.992188 -6.292969 C 1.992188 -6.054688 2.019531 -5.816406 1.992188 -5.578125 C 1.992188 -5.339844 1.992188 -5.097656 1.964844 -4.859375 C 1.964844 -4.621094 2.019531 -4.382812 1.992188 -4.167969 C 1.992188 -3.929688 1.992188 -3.691406 1.992188 -3.453125 C 1.992188 -3.214844 1.964844 -2.972656 1.964844 -2.734375 C 1.9375 -2.496094 1.914062 -2.257812 1.914062 -2.019531 C 1.886719 -1.886719 1.9375 -1.648438 1.9375 -1.40625 C 1.9375 -1.195312 1.9375 -0.984375 1.9375 -0.769531 C 1.9375 -0.503906 1.9375 -0.265625 2.019531 -0.160156 C 2.152344 0 2.390625 0.0546875 2.65625 0.0273438 C 2.921875 0.0273438 3.1875 -0.0273438 3.371094 -0.0273438 C 3.558594 -0.0273438 3.796875 0.0273438 4.011719 0.0273438 C 4.25 0.0273438 4.433594 -0.0273438 4.542969 -0.210938 C 4.621094 -0.371094 4.726562 -0.558594 4.753906 -0.796875 C 4.78125 -1.007812 4.726562 -1.222656 4.726562 -1.433594 C 4.726562 -1.671875 4.753906 -1.886719 4.78125 -2.070312 C 4.78125 -2.257812 4.832031 -2.523438 4.832031 -2.789062 Z M 4.832031 -2.789062" transform="translate(143.244 236.985)"/></g></g></g><g fill="#D5FFF3"><g><g><path d="M 5.65625 -6.773438 C 5.921875 -6.773438 6.160156 -6.824219 6.425781 -6.851562 C 6.691406 -6.851562 6.929688 -6.851562 7.195312 -6.878906 C 7.460938 -6.878906 7.703125 -6.957031 7.96875 -6.957031 C 8.234375 -6.984375 8.472656 -7.011719 8.738281 -7.011719 C 9.003906 -7.039062 9.242188 -7.039062 9.507812 -7.039062 C 9.746094 -7.0625 9.984375 -7.0625 10.226562 -7.117188 C 10.464844 -7.195312 10.675781 -7.328125 10.886719 -7.4375 C 11.128906 -7.542969 11.3125 -7.648438 11.527344 -7.78125 C 11.710938 -7.914062 11.925781 -8.046875 12.109375 -8.207031 C 12.269531 -8.367188 12.429688 -8.550781 12.589844 -8.738281 C 12.722656 -8.949219 12.828125 -9.164062 12.960938 -9.375 C 13.066406 -9.585938 13.199219 -9.773438 13.277344 -10.011719 C 13.359375 -10.25 13.410156 -10.464844 13.464844 -10.703125 C 13.492188 -10.941406 13.597656 -11.179688 13.625 -11.417969 C 13.625 -11.660156 13.570312 -11.898438 13.570312 -12.109375 C 13.570312 -12.375 13.570312 -12.589844 13.542969 -12.828125 C 13.519531 -13.066406 13.464844 -13.277344 13.410156 -13.492188 C 13.359375 -13.730469 13.304688 -13.96875 13.199219 -14.15625 C 13.121094 -14.394531 12.988281 -14.578125 12.855469 -14.765625 C 12.746094 -14.976562 12.613281 -15.164062 12.457031 -15.324219 C 12.296875 -15.507812 12.109375 -15.667969 11.925781 -15.800781 C 11.738281 -15.933594 11.527344 -16.015625 11.3125 -16.121094 C 11.101562 -16.226562 10.886719 -16.332031 10.675781 -16.386719 C 10.464844 -16.464844 10.226562 -16.492188 9.984375 -16.519531 C 9.746094 -16.570312 9.507812 -16.597656 9.269531 -16.625 C 9.03125 -16.652344 8.789062 -16.679688 8.523438 -16.703125 C 8.285156 -16.730469 8.046875 -16.757812 7.808594 -16.785156 C 7.570312 -16.785156 7.328125 -16.8125 7.089844 -16.8125 C 6.851562 -16.835938 6.613281 -16.835938 6.347656 -16.835938 C 6.109375 -16.835938 5.871094 -16.8125 5.628906 -16.8125 C 5.390625 -16.8125 5.152344 -16.835938 4.914062 -16.835938 C 4.648438 -16.8125 4.410156 -16.863281 4.167969 -16.835938 C 3.902344 -16.835938 3.691406 -16.785156 3.480469 -16.785156 C 3.214844 -16.757812 3 -16.785156 2.816406 -16.785156 C 2.496094 -16.785156 2.285156 -16.730469 2.175781 -16.570312 C 2.097656 -16.4375 2.070312 -16.226562 2.046875 -15.90625 C 2.046875 -15.722656 2.046875 -15.484375 2.046875 -15.21875 C 2.046875 -14.976562 2.019531 -14.738281 2.019531 -14.472656 C 2.019531 -14.234375 1.992188 -13.996094 2.019531 -13.757812 C 2.019531 -13.519531 2.019531 -13.253906 2.019531 -13.011719 C 2.046875 -12.773438 2.019531 -12.535156 2.019531 -12.269531 C 2.019531 -12.03125 2.046875 -11.792969 2.046875 -11.550781 C 2.046875 -11.285156 2.046875 -11.046875 2.046875 -10.808594 C 2.046875 -10.570312 2.070312 -10.304688 2.070312 -10.066406 C 2.070312 -9.828125 2.046875 -9.585938 2.046875 -9.320312 C 2.046875 -9.082031 2.097656 -8.84375 2.097656 -8.605469 C 2.097656 -8.367188 2.070312 -8.101562 2.070312 -7.859375 C 2.070312 -7.621094 2.125 -7.382812 2.152344 -7.144531 C 2.152344 -6.878906 2.125 -6.640625 2.125 -6.398438 C 2.152344 -6.160156 2.125 -5.921875 2.125 -5.683594 C 2.125 -5.417969 2.097656 -5.179688 2.097656 -4.941406 C 2.097656 -4.699219 2.125 -4.460938 2.125 -4.222656 C 2.125 -3.957031 2.125 -3.71875 2.125 -3.480469 C 2.125 -3.238281 2.125 -3 2.125 -2.761719 C 2.125 -2.523438 2.152344 -2.257812 2.152344 -2.019531 C 2.152344 -1.753906 2.125 -1.726562 2.125 -1.433594 C 2.152344 -1.300781 2.203125 -1.117188 2.230469 -0.851562 C 2.230469 -0.585938 2.257812 -0.371094 2.390625 -0.265625 C 2.550781 -0.132812 2.789062 -0.105469 3 -0.0546875 C 3.238281 -0.0273438 3.453125 0.0546875 3.613281 0.0546875 C 3.796875 0.078125 4.144531 0.0273438 4.433594 -0.0273438 C 4.78125 -0.078125 5.074219 -0.238281 5.046875 -0.476562 C 5.019531 -0.71875 4.992188 -0.957031 4.992188 -1.195312 C 4.992188 -1.433594 4.992188 -1.671875 4.992188 -1.914062 C 4.992188 -2.152344 5.019531 -2.390625 5.019531 -2.628906 C 5.019531 -2.839844 5.019531 -3.082031 5.019531 -3.320312 C 5.019531 -3.53125 4.941406 -3.769531 4.941406 -4.011719 C 4.941406 -4.222656 4.992188 -4.460938 4.964844 -4.699219 C 4.964844 -4.914062 4.941406 -5.152344 4.914062 -5.390625 C 4.914062 -5.605469 4.941406 -5.84375 4.914062 -6.082031 C 4.914062 -6.292969 4.914062 -6.507812 4.886719 -6.746094 C 5.152344 -6.746094 5.390625 -6.746094 5.65625 -6.773438 Z M 4.914062 -10.382812 C 4.886719 -10.621094 4.832031 -10.863281 4.832031 -11.128906 C 4.832031 -11.367188 4.832031 -11.605469 4.832031 -11.871094 C 4.832031 -12.109375 4.832031 -12.375 4.832031 -12.613281 C 4.832031 -12.855469 4.859375 -13.121094 4.859375 -13.359375 C 4.859375 -13.625 4.832031 -13.863281 4.808594 -14.101562 C 5.074219 -14.101562 5.339844 -14.074219 5.605469 -14.074219 C 5.871094 -14.074219 6.109375 -14.074219 6.375 -14.074219 C 6.640625 -14.074219 6.90625 -14.101562 7.144531 -14.101562 C 7.410156 -14.101562 7.675781 -14.101562 7.941406 -14.101562 C 8.179688 -14.074219 8.472656 -14.101562 8.710938 -14.074219 C 9.003906 -14.023438 9.242188 -13.863281 9.480469 -13.785156 C 9.746094 -13.675781 10.011719 -13.597656 10.199219 -13.4375 C 10.410156 -13.277344 10.515625 -13.011719 10.621094 -12.773438 C 10.703125 -12.535156 10.753906 -12.296875 10.753906 -12.003906 C 10.753906 -11.765625 10.730469 -11.550781 10.675781 -11.339844 C 10.597656 -11.128906 10.515625 -10.914062 10.410156 -10.730469 C 10.277344 -10.542969 10.117188 -10.382812 9.933594 -10.25 C 9.746094 -10.144531 9.5625 -10.039062 9.320312 -9.960938 C 9.136719 -9.90625 8.921875 -9.878906 8.683594 -9.878906 C 8.417969 -9.851562 8.179688 -9.773438 7.941406 -9.746094 C 7.675781 -9.71875 7.4375 -9.773438 7.171875 -9.746094 C 6.929688 -9.71875 6.664062 -9.695312 6.425781 -9.667969 C 6.160156 -9.640625 5.921875 -9.667969 5.65625 -9.667969 C 5.417969 -9.667969 5.179688 -9.640625 4.914062 -9.640625 C 4.914062 -9.90625 4.914062 -10.117188 4.914062 -10.382812 Z M 4.914062 -10.382812" transform="translate(166.294 236.985)"/></g></g></g><g fill="#D5FFF3"><g><g><path d="M 5.339844 -3 C 5.578125 -2.972656 5.816406 -2.921875 6.054688 -2.921875 C 6.320312 -2.921875 6.558594 -2.921875 6.796875 -2.921875 C 7.039062 -2.921875 7.277344 -2.949219 7.515625 -2.949219 C 7.753906 -2.949219 7.992188 -2.949219 8.234375 -2.949219 C 8.472656 -2.972656 8.738281 -3.027344 9.003906 -3.027344 C 9.296875 -3 9.5625 -2.972656 9.800781 -2.972656 C 10.25 -2.949219 10.25 -3.105469 10.597656 -2.949219 C 10.886719 -2.816406 10.703125 -2.683594 10.914062 -2.363281 C 11.019531 -2.203125 11.179688 -2.046875 11.285156 -1.832031 C 11.394531 -1.648438 11.472656 -1.460938 11.550781 -1.25 C 11.660156 -1.0625 11.765625 -0.851562 11.792969 -0.664062 C 11.871094 -0.371094 12.003906 -0.238281 12.136719 -0.132812 C 12.296875 -0.0273438 12.480469 -0.0273438 12.746094 -0.0273438 C 12.933594 -0.0273438 13.171875 0 13.410156 0 C 13.675781 0 13.890625 -0.0546875 14.074219 -0.078125 C 14.367188 -0.132812 14.554688 -0.210938 14.632812 -0.371094 C 14.710938 -0.53125 14.6875 -0.742188 14.578125 -1.035156 C 14.5 -1.222656 14.421875 -1.460938 14.316406 -1.699219 C 14.234375 -1.914062 14.207031 -2.175781 14.101562 -2.390625 C 14.023438 -2.628906 13.863281 -2.816406 13.785156 -3.054688 C 13.675781 -3.292969 13.597656 -3.503906 13.492188 -3.746094 C 13.410156 -3.957031 13.386719 -4.222656 13.304688 -4.433594 C 13.199219 -4.675781 13.066406 -4.886719 12.988281 -5.097656 C 12.90625 -5.339844 12.773438 -5.550781 12.695312 -5.761719 C 12.613281 -5.976562 12.5625 -6.214844 12.480469 -6.425781 C 12.402344 -6.640625 12.269531 -6.851562 12.191406 -7.0625 C 12.109375 -7.304688 12.003906 -7.515625 11.925781 -7.726562 C 11.84375 -7.941406 11.792969 -8.179688 11.710938 -8.390625 C 11.632812 -8.632812 11.550781 -8.84375 11.472656 -9.054688 C 11.367188 -9.269531 11.285156 -9.480469 11.179688 -9.71875 C 11.101562 -9.933594 11.074219 -10.171875 10.996094 -10.382812 C 10.914062 -10.621094 10.753906 -10.808594 10.675781 -11.019531 C 10.597656 -11.234375 10.542969 -11.472656 10.464844 -11.683594 C 10.359375 -11.925781 10.332031 -12.136719 10.25 -12.375 C 10.171875 -12.589844 10.039062 -12.800781 9.933594 -13.011719 C 9.851562 -13.226562 9.800781 -13.464844 9.71875 -13.675781 C 9.613281 -13.890625 9.535156 -14.101562 9.453125 -14.339844 C 9.375 -14.554688 9.242188 -14.765625 9.164062 -14.976562 C 9.082031 -15.191406 8.976562 -15.402344 8.898438 -15.617188 C 8.765625 -15.960938 8.738281 -16.226562 8.632812 -16.386719 C 8.417969 -16.703125 8.207031 -16.757812 7.941406 -16.785156 C 7.726562 -16.8125 7.488281 -16.8125 7.144531 -16.785156 C 6.90625 -16.785156 6.773438 -16.757812 6.558594 -16.597656 C 6.453125 -16.492188 6.265625 -16.386719 6.109375 -16.148438 C 6.027344 -15.988281 6.003906 -15.773438 5.894531 -15.535156 C 5.816406 -15.351562 5.710938 -15.164062 5.628906 -14.953125 C 5.550781 -14.738281 5.496094 -14.5 5.417969 -14.261719 C 5.339844 -14.050781 5.257812 -13.835938 5.179688 -13.597656 C 5.097656 -13.386719 5.019531 -13.144531 4.941406 -12.933594 C 4.859375 -12.695312 4.753906 -12.480469 4.675781 -12.242188 C 4.59375 -12.03125 4.59375 -11.765625 4.515625 -11.550781 C 4.433594 -11.3125 4.300781 -11.128906 4.222656 -10.886719 C 4.144531 -10.675781 4.117188 -10.4375 4.035156 -10.199219 C 3.957031 -9.960938 3.824219 -9.773438 3.746094 -9.535156 C 3.691406 -9.320312 3.613281 -9.082031 3.53125 -8.84375 C 3.453125 -8.632812 3.398438 -8.390625 3.320312 -8.179688 C 3.238281 -7.941406 3.160156 -7.726562 3.082031 -7.488281 C 3 -7.277344 2.949219 -7.039062 2.867188 -6.796875 C 2.789062 -6.585938 2.628906 -6.375 2.550781 -6.160156 C 2.46875 -5.949219 2.496094 -5.683594 2.417969 -5.445312 C 2.335938 -5.230469 2.257812 -5.019531 2.175781 -4.78125 C 2.097656 -4.566406 1.9375 -4.355469 1.859375 -4.144531 C 1.78125 -3.902344 1.78125 -3.664062 1.699219 -3.453125 C 1.621094 -3.214844 1.515625 -3 1.433594 -2.789062 C 1.382812 -2.65625 1.273438 -2.363281 1.140625 -2.046875 C 1.0625 -1.804688 0.984375 -1.539062 0.875 -1.300781 C 0.769531 -0.957031 0.71875 -0.664062 0.71875 -0.53125 C 0.664062 -0.078125 0.824219 0.0273438 1.167969 0.0273438 C 1.40625 0.0546875 1.699219 0 2.046875 0.0273438 C 2.285156 0.0546875 2.601562 0.0546875 2.894531 0 C 3.1875 -0.0546875 3.398438 -0.160156 3.558594 -0.425781 C 3.664062 -0.636719 3.796875 -0.824219 3.878906 -1.035156 C 3.957031 -1.25 4.035156 -1.460938 4.117188 -1.671875 C 4.195312 -1.886719 4.25 -2.097656 4.355469 -2.308594 C 4.433594 -2.523438 4.488281 -2.761719 4.59375 -2.972656 C 4.832031 -2.972656 5.097656 -3 5.339844 -3 Z M 5.683594 -6.53125 C 5.761719 -6.773438 5.84375 -6.984375 5.921875 -7.195312 C 6.003906 -7.4375 6.082031 -7.648438 6.160156 -7.886719 C 6.242188 -8.101562 6.320312 -8.3125 6.425781 -8.523438 C 6.507812 -8.765625 6.558594 -8.976562 6.664062 -9.1875 C 6.746094 -9.429688 6.90625 -9.613281 6.984375 -9.828125 C 7.0625 -10.039062 7.0625 -10.304688 7.144531 -10.542969 C 7.222656 -10.753906 7.355469 -10.996094 7.4375 -11.234375 C 7.570312 -10.996094 7.648438 -10.730469 7.753906 -10.542969 C 7.886719 -10.304688 8.046875 -10.117188 8.152344 -9.90625 C 8.285156 -9.695312 8.367188 -9.453125 8.445312 -9.242188 C 8.550781 -9.03125 8.632812 -8.789062 8.710938 -8.578125 C 8.816406 -8.339844 8.921875 -8.125 9.003906 -7.886719 C 9.109375 -7.675781 9.242188 -7.460938 9.320312 -7.25 C 9.429688 -7.011719 9.453125 -6.773438 9.535156 -6.53125 C 9.640625 -6.320312 9.746094 -6.109375 9.851562 -5.871094 C 9.585938 -5.871094 9.375 -5.84375 9.136719 -5.84375 C 8.871094 -5.84375 8.632812 -5.84375 8.390625 -5.84375 C 8.125 -5.84375 7.886719 -5.894531 7.648438 -5.894531 C 7.410156 -5.894531 7.171875 -5.871094 6.90625 -5.871094 C 6.664062 -5.871094 6.425781 -5.871094 6.160156 -5.871094 C 5.921875 -5.871094 5.65625 -5.84375 5.390625 -5.84375 C 5.472656 -6.082031 5.605469 -6.320312 5.683594 -6.53125 Z M 5.683594 -6.53125" transform="translate(184.67 236.985)"/></g></g></g><g fill="#D5FFF3"><g><g><path d="M 5.125 -9.773438 C 5.230469 -9.773438 5.417969 -9.507812 5.628906 -9.164062 C 5.738281 -8.976562 5.921875 -8.765625 6.054688 -8.523438 C 6.1875 -8.3125 6.292969 -8.074219 6.398438 -7.835938 C 6.53125 -7.59375 6.613281 -7.328125 6.71875 -7.144531 C 6.851562 -6.929688 7.011719 -6.746094 7.144531 -6.53125 C 7.25 -6.320312 7.382812 -6.109375 7.515625 -5.894531 C 7.648438 -5.710938 7.726562 -5.472656 7.859375 -5.285156 C 7.992188 -5.074219 8.207031 -4.914062 8.3125 -4.699219 C 8.445312 -4.488281 8.605469 -4.300781 8.738281 -4.089844 C 8.871094 -3.902344 8.976562 -3.691406 9.109375 -3.480469 C 9.269531 -3.265625 9.402344 -3.082031 9.535156 -2.867188 C 9.667969 -2.65625 9.746094 -2.441406 9.878906 -2.230469 C 10.011719 -2.019531 10.171875 -1.832031 10.304688 -1.621094 C 10.4375 -1.40625 10.542969 -1.167969 10.675781 -0.957031 C 10.835938 -0.769531 11.019531 -0.585938 11.207031 -0.425781 C 11.394531 -0.292969 11.605469 -0.160156 11.84375 -0.078125 C 12.082031 0 12.324219 0 12.613281 0 C 12.90625 0 13.121094 0 13.277344 -0.0273438 C 13.570312 -0.105469 13.652344 -0.265625 13.703125 -0.503906 C 13.730469 -0.691406 13.730469 -0.902344 13.757812 -1.195312 C 13.757812 -1.433594 13.730469 -1.671875 13.757812 -1.914062 C 13.757812 -2.152344 13.808594 -2.390625 13.835938 -2.628906 C 13.835938 -2.867188 13.785156 -3.105469 13.785156 -3.347656 C 13.785156 -3.585938 13.808594 -3.824219 13.808594 -4.0625 C 13.808594 -4.300781 13.863281 -4.542969 13.863281 -4.78125 C 13.863281 -5.019531 13.808594 -5.257812 13.835938 -5.523438 C 13.835938 -5.761719 13.890625 -6.003906 13.890625 -6.242188 C 13.890625 -6.480469 13.917969 -6.71875 13.917969 -6.957031 C 13.917969 -7.195312 13.863281 -7.4375 13.863281 -7.675781 C 13.863281 -7.914062 13.941406 -8.152344 13.941406 -8.390625 C 13.941406 -8.65625 13.941406 -8.898438 13.941406 -9.136719 C 13.96875 -9.375 13.917969 -9.613281 13.917969 -9.851562 C 13.917969 -10.09375 13.917969 -10.332031 13.917969 -10.570312 C 13.917969 -10.808594 13.96875 -11.046875 13.96875 -11.285156 C 13.96875 -11.527344 13.996094 -11.765625 13.996094 -11.976562 C 13.996094 -12.242188 13.941406 -12.480469 13.941406 -12.695312 C 13.941406 -12.960938 14.023438 -13.199219 14.023438 -13.4375 C 14.023438 -13.675781 13.996094 -13.917969 13.996094 -14.15625 C 13.996094 -14.394531 13.996094 -14.632812 13.996094 -14.871094 C 13.996094 -15.136719 14.050781 -15.351562 14.023438 -15.5625 C 13.996094 -15.828125 13.96875 -16.066406 13.890625 -16.253906 C 13.785156 -16.492188 13.625 -16.652344 13.386719 -16.730469 C 13.199219 -16.8125 12.960938 -16.757812 12.695312 -16.757812 C 12.480469 -16.730469 12.242188 -16.730469 11.976562 -16.679688 C 11.792969 -16.652344 11.578125 -16.546875 11.339844 -16.464844 C 11.339844 -16.253906 11.285156 -16.066406 11.285156 -15.800781 C 11.261719 -15.589844 11.285156 -15.351562 11.285156 -15.109375 C 11.285156 -14.871094 11.234375 -14.632812 11.234375 -14.394531 C 11.234375 -14.15625 11.285156 -13.917969 11.285156 -13.675781 C 11.285156 -13.464844 11.234375 -13.226562 11.234375 -12.988281 C 11.234375 -12.746094 11.261719 -12.507812 11.261719 -12.269531 C 11.261719 -12.03125 11.179688 -11.792969 11.179688 -11.550781 C 11.179688 -11.339844 11.261719 -11.101562 11.261719 -10.863281 C 11.261719 -10.621094 11.207031 -10.382812 11.207031 -10.144531 C 11.207031 -9.90625 11.179688 -9.667969 11.179688 -9.453125 C 11.179688 -9.214844 11.207031 -8.976562 11.207031 -8.738281 C 11.207031 -8.5 11.179688 -8.257812 11.179688 -8.046875 C 11.152344 -7.78125 11.128906 -7.542969 11.128906 -7.355469 C 11.101562 -6.90625 11.101562 -6.640625 11.074219 -6.664062 C 10.835938 -6.691406 10.648438 -6.929688 10.464844 -7.195312 C 10.304688 -7.460938 10.171875 -7.78125 10.066406 -7.941406 C 9.933594 -8.125 9.746094 -8.3125 9.640625 -8.5 C 9.507812 -8.710938 9.375 -8.921875 9.242188 -9.136719 C 9.109375 -9.320312 9.054688 -9.5625 8.921875 -9.773438 C 8.789062 -9.984375 8.605469 -10.144531 8.472656 -10.359375 C 8.367188 -10.570312 8.234375 -10.753906 8.101562 -10.96875 C 7.96875 -11.179688 7.859375 -11.394531 7.726562 -11.605469 C 7.59375 -11.816406 7.488281 -12.03125 7.382812 -12.242188 C 7.25 -12.429688 7.117188 -12.640625 6.984375 -12.855469 C 6.851562 -13.066406 6.773438 -13.277344 6.640625 -13.492188 C 6.53125 -13.703125 6.347656 -13.863281 6.214844 -14.074219 C 6.082031 -14.261719 6.003906 -14.5 5.871094 -14.6875 C 5.738281 -14.898438 5.578125 -15.085938 5.445312 -15.296875 C 5.339844 -15.507812 5.207031 -15.722656 5.097656 -15.90625 C 4.941406 -16.199219 4.808594 -16.359375 4.648438 -16.519531 C 4.460938 -16.679688 4.277344 -16.730469 3.984375 -16.757812 C 3.796875 -16.785156 3.53125 -16.785156 3.238281 -16.757812 C 2.816406 -16.785156 2.574219 -16.785156 2.417969 -16.785156 C 2.097656 -16.757812 2.070312 -16.652344 2.070312 -16.171875 C 2.070312 -15.933594 2.125 -15.695312 2.125 -15.457031 C 2.125 -15.21875 2.125 -14.976562 2.125 -14.738281 C 2.125 -14.5 2.046875 -14.261719 2.046875 -14.023438 C 2.046875 -13.785156 2.070312 -13.542969 2.070312 -13.304688 C 2.070312 -13.066406 2.046875 -12.828125 2.070312 -12.589844 C 2.070312 -12.347656 2.097656 -12.109375 2.097656 -11.871094 C 2.097656 -11.632812 2.125 -11.394531 2.125 -11.152344 C 2.125 -10.914062 2.097656 -10.675781 2.097656 -10.4375 C 2.097656 -10.199219 2.046875 -9.960938 2.046875 -9.746094 C 2.070312 -9.507812 2.125 -9.269531 2.125 -9.03125 C 2.125 -8.789062 2.152344 -8.550781 2.152344 -8.3125 C 2.152344 -8.074219 2.125 -7.835938 2.125 -7.59375 C 2.125 -7.355469 2.125 -7.117188 2.125 -6.878906 C 2.125 -6.664062 2.152344 -6.398438 2.152344 -6.160156 C 2.152344 -5.921875 2.125 -5.683594 2.125 -5.417969 C 2.125 -5.179688 2.125 -4.941406 2.125 -4.675781 C 2.125 -4.433594 2.070312 -4.195312 2.070312 -3.929688 C 2.070312 -3.691406 2.125 -3.453125 2.125 -3.214844 C 2.125 -2.949219 2.097656 -2.707031 2.070312 -2.46875 C 2.070312 -2.230469 2.097656 -1.964844 2.097656 -1.726562 C 2.097656 -1.488281 2.070312 -1.222656 2.070312 -1.007812 C 2.070312 -0.691406 2.125 -0.476562 2.230469 -0.320312 C 2.335938 -0.132812 2.523438 0 2.789062 0.0546875 C 2.972656 0.105469 3.214844 0.132812 3.480469 0.132812 C 3.769531 0.132812 4.011719 0.105469 4.222656 0.0546875 C 4.488281 0 4.699219 -0.105469 4.832031 -0.320312 C 4.941406 -0.476562 4.964844 -0.71875 4.992188 -1.007812 C 4.992188 -1.195312 4.992188 -1.433594 4.964844 -1.671875 C 4.964844 -1.914062 4.964844 -2.125 4.964844 -2.363281 C 4.941406 -2.601562 4.941406 -2.839844 4.941406 -3.027344 C 4.941406 -3.292969 4.941406 -3.558594 4.941406 -3.796875 C 4.914062 -4.0625 4.914062 -4.300781 4.914062 -4.542969 C 4.914062 -4.808594 4.914062 -5.074219 4.914062 -5.3125 C 4.914062 -5.578125 4.941406 -5.816406 4.941406 -6.082031 C 4.941406 -6.320312 4.992188 -6.585938 4.992188 -6.824219 C 4.992188 -7.089844 4.941406 -7.328125 4.941406 -7.59375 C 4.941406 -7.835938 4.941406 -8.101562 4.941406 -8.367188 C 4.941406 -8.605469 4.941406 -8.84375 4.914062 -9.136719 C 4.941406 -9.429688 4.832031 -9.828125 5.125 -9.773438 Z M 5.125 -9.773438" transform="translate(203.79 236.985)"/></g></g></g><g fill="#D5FFF3"><g><g><path d="M 4.992188 -9.109375 C 4.992188 -9.347656 4.992188 -9.585938 4.992188 -9.828125 C 4.992188 -10.066406 4.992188 -10.332031 4.992188 -10.570312 C 4.992188 -10.808594 5.046875 -11.046875 5.046875 -11.285156 C 5.046875 -11.527344 5.097656 -11.792969 5.097656 -12.03125 C 5.097656 -12.269531 5.046875 -12.507812 5.046875 -12.746094 C 5.046875 -12.988281 5.019531 -13.226562 5.019531 -13.464844 C 5.019531 -13.730469 5.046875 -13.96875 5.046875 -14.207031 C 5.046875 -14.449219 5.019531 -14.6875 5.019531 -14.925781 C 5.019531 -15.191406 5.097656 -15.429688 5.074219 -15.640625 C 5.046875 -15.933594 4.964844 -16.171875 4.886719 -16.359375 C 4.78125 -16.597656 4.566406 -16.652344 4.300781 -16.703125 C 4.117188 -16.730469 3.878906 -16.785156 3.585938 -16.785156 C 3.320312 -16.785156 3.082031 -16.757812 2.894531 -16.730469 C 2.65625 -16.679688 2.441406 -16.652344 2.308594 -16.386719 C 2.230469 -16.226562 2.175781 -16.015625 2.152344 -15.695312 C 2.125 -15.484375 2.125 -15.242188 2.125 -14.976562 C 2.125 -14.738281 2.175781 -14.527344 2.175781 -14.289062 C 2.175781 -14.050781 2.175781 -13.808594 2.175781 -13.570312 C 2.152344 -13.332031 2.152344 -13.09375 2.152344 -12.855469 C 2.152344 -12.613281 2.097656 -12.375 2.097656 -12.136719 C 2.097656 -11.925781 2.125 -11.683594 2.125 -11.445312 C 2.125 -11.207031 2.152344 -10.96875 2.152344 -10.730469 C 2.152344 -10.488281 2.070312 -10.25 2.070312 -10.011719 C 2.070312 -9.773438 2.152344 -9.535156 2.152344 -9.296875 C 2.152344 -9.054688 2.125 -8.816406 2.125 -8.578125 C 2.125 -8.339844 2.070312 -8.125 2.070312 -7.886719 C 2.070312 -7.648438 2.125 -7.410156 2.125 -7.171875 C 2.125 -6.929688 2.046875 -6.691406 2.046875 -6.453125 C 2.046875 -6.214844 2.046875 -6.003906 2.046875 -5.761719 C 2.046875 -5.523438 2.097656 -5.285156 2.097656 -5.046875 C 2.097656 -4.808594 2.046875 -4.566406 2.046875 -4.328125 C 2.046875 -4.117188 2.097656 -3.878906 2.097656 -3.636719 C 2.097656 -3.398438 2.070312 -3.160156 2.070312 -2.921875 C 2.070312 -2.707031 2.019531 -2.46875 2.019531 -2.230469 C 2.019531 -2.019531 2.019531 -1.78125 1.992188 -1.488281 C 1.964844 -1.273438 1.964844 -1.035156 1.964844 -0.742188 C 1.9375 -0.398438 2.097656 -0.160156 2.335938 -0.0546875 C 2.601562 0.105469 2.972656 0.0546875 3.132812 0.0546875 C 3.371094 0.0546875 3.636719 0.0273438 3.878906 0.0273438 C 4.144531 0 4.410156 -0.0273438 4.621094 -0.078125 C 4.886719 -0.1875 5.046875 -0.320312 5.019531 -0.585938 C 4.992188 -0.796875 5.019531 -1.007812 5.019531 -1.222656 C 5.019531 -1.433594 4.992188 -1.648438 4.992188 -1.832031 C 4.992188 -2.046875 5.074219 -2.257812 5.074219 -2.46875 C 5.074219 -2.707031 5.046875 -2.949219 5.046875 -3.1875 C 5.046875 -3.453125 5.074219 -3.691406 5.074219 -3.929688 C 5.074219 -4.195312 5.046875 -4.433594 5.046875 -4.675781 C 5.046875 -4.914062 5.046875 -5.179688 5.046875 -5.417969 C 5.046875 -5.65625 5.046875 -5.921875 5.046875 -6.160156 C 5.046875 -6.398438 5.046875 -6.664062 5.046875 -6.90625 C 5.046875 -7.144531 5.046875 -7.382812 5.046875 -7.648438 C 5.046875 -7.886719 5.097656 -8.125 5.097656 -8.390625 C 5.097656 -8.605469 4.992188 -8.871094 4.992188 -9.109375 Z M 4.992188 -9.109375" transform="translate(223.522 236.985)"/></g></g></g><g fill="#D5FFF3"><g><g><path d="M 14.207031 -9.585938 C 14.207031 -9.800781 14.101562 -10.011719 14.101562 -10.226562 C 14.074219 -10.464844 14.050781 -10.675781 14.023438 -10.886719 C 13.996094 -11.101562 14.023438 -11.339844 13.96875 -11.550781 C 13.890625 -11.792969 13.757812 -12.003906 13.703125 -12.269531 C 13.625 -12.507812 13.570312 -12.746094 13.492188 -12.988281 C 13.410156 -13.226562 13.359375 -13.492188 13.253906 -13.703125 C 13.171875 -13.941406 13.09375 -14.183594 12.960938 -14.421875 C 12.855469 -14.632812 12.722656 -14.871094 12.5625 -15.058594 C 12.429688 -15.269531 12.269531 -15.484375 12.082031 -15.667969 C 11.898438 -15.828125 11.660156 -15.933594 11.445312 -16.09375 C 11.234375 -16.226562 11.019531 -16.359375 10.78125 -16.464844 C 10.570312 -16.570312 10.304688 -16.625 10.066406 -16.703125 C 9.828125 -16.757812 9.585938 -16.835938 9.320312 -16.890625 C 9.082031 -16.945312 8.84375 -16.96875 8.578125 -16.96875 C 8.339844 -16.996094 8.074219 -16.996094 7.835938 -16.996094 C 7.570312 -16.996094 7.328125 -16.996094 7.0625 -16.945312 C 6.824219 -16.917969 6.585938 -16.863281 6.320312 -16.8125 C 6.082031 -16.757812 5.816406 -16.757812 5.578125 -16.679688 C 5.339844 -16.570312 5.125 -16.4375 4.914062 -16.304688 C 4.675781 -16.199219 4.488281 -16.066406 4.277344 -15.90625 C 4.0625 -15.773438 3.796875 -15.695312 3.613281 -15.507812 C 3.425781 -15.351562 3.292969 -15.136719 3.105469 -14.925781 C 2.972656 -14.738281 2.816406 -14.527344 2.683594 -14.316406 C 2.550781 -14.101562 2.46875 -13.835938 2.390625 -13.597656 C 2.285156 -13.386719 2.203125 -13.144531 2.125 -12.878906 C 2.070312 -12.640625 1.964844 -12.402344 1.914062 -12.164062 C 1.859375 -11.898438 1.753906 -11.660156 1.699219 -11.417969 C 1.648438 -11.152344 1.671875 -10.886719 1.648438 -10.648438 C 1.621094 -10.382812 1.59375 -10.144531 1.566406 -9.878906 C 1.539062 -9.640625 1.488281 -9.375 1.488281 -9.136719 C 1.460938 -8.871094 1.460938 -8.632812 1.488281 -8.367188 C 1.488281 -8.101562 1.515625 -7.859375 1.539062 -7.59375 C 1.539062 -7.355469 1.539062 -7.089844 1.566406 -6.824219 C 1.59375 -6.585938 1.648438 -6.347656 1.699219 -6.082031 C 1.753906 -5.84375 1.726562 -5.578125 1.804688 -5.3125 C 1.859375 -5.097656 1.992188 -4.886719 2.046875 -4.648438 C 2.125 -4.410156 2.175781 -4.167969 2.257812 -3.957031 C 2.335938 -3.71875 2.441406 -3.503906 2.550781 -3.292969 C 2.65625 -3.082031 2.761719 -2.867188 2.867188 -2.65625 C 3 -2.441406 3.160156 -2.257812 3.292969 -2.046875 C 3.453125 -1.832031 3.585938 -1.648438 3.769531 -1.460938 C 3.957031 -1.273438 4.144531 -1.089844 4.328125 -0.929688 C 4.515625 -0.769531 4.753906 -0.636719 4.964844 -0.503906 C 5.179688 -0.371094 5.417969 -0.238281 5.628906 -0.132812 C 5.871094 -0.0273438 6.136719 0.0273438 6.375 0.078125 C 6.613281 0.160156 6.878906 0.1875 7.117188 0.238281 C 7.382812 0.265625 7.621094 0.265625 7.886719 0.265625 C 8.125 0.265625 8.390625 0.265625 8.632812 0.210938 C 8.898438 0.1875 9.136719 0.132812 9.375 0.0546875 C 9.613281 -0.0273438 9.851562 -0.105469 10.09375 -0.210938 C 10.332031 -0.320312 10.542969 -0.453125 10.753906 -0.585938 C 10.96875 -0.742188 11.179688 -0.851562 11.394531 -1.035156 C 11.578125 -1.195312 11.792969 -1.328125 11.976562 -1.515625 C 12.136719 -1.699219 12.269531 -1.9375 12.402344 -2.152344 C 12.535156 -2.363281 12.667969 -2.550781 12.800781 -2.761719 C 12.90625 -2.949219 13.039062 -3.160156 13.144531 -3.371094 C 13.253906 -3.585938 13.332031 -3.796875 13.4375 -4.035156 C 13.519531 -4.25 13.570312 -4.488281 13.652344 -4.699219 C 13.730469 -4.941406 13.835938 -5.152344 13.890625 -5.363281 C 13.941406 -5.605469 14.023438 -5.84375 14.074219 -6.082031 C 14.101562 -6.292969 14.128906 -6.53125 14.15625 -6.773438 C 14.183594 -7.011719 14.207031 -7.25 14.234375 -7.488281 C 14.234375 -7.726562 14.234375 -7.96875 14.234375 -8.207031 C 14.234375 -8.445312 14.234375 -8.683594 14.234375 -8.921875 C 14.207031 -9.136719 14.234375 -9.347656 14.207031 -9.585938 Z M 4.25 -8.976562 C 4.277344 -9.214844 4.25 -9.429688 4.277344 -9.667969 C 4.300781 -9.878906 4.300781 -10.117188 4.328125 -10.332031 C 4.355469 -10.570312 4.410156 -10.78125 4.460938 -10.996094 C 4.488281 -11.234375 4.566406 -11.445312 4.621094 -11.660156 C 4.675781 -11.898438 4.699219 -12.164062 4.808594 -12.375 C 4.941406 -12.589844 5.074219 -12.800781 5.207031 -12.988281 C 5.363281 -13.199219 5.578125 -13.359375 5.761719 -13.519531 C 5.949219 -13.652344 6.160156 -13.808594 6.375 -13.917969 C 6.585938 -14.023438 6.824219 -14.15625 7.0625 -14.207031 C 7.304688 -14.289062 7.570312 -14.289062 7.808594 -14.289062 C 8.046875 -14.289062 8.285156 -14.289062 8.523438 -14.207031 C 8.738281 -14.15625 8.949219 -14.023438 9.164062 -13.890625 C 9.375 -13.785156 9.585938 -13.703125 9.773438 -13.542969 C 9.960938 -13.386719 10.09375 -13.171875 10.25 -12.988281 C 10.382812 -12.800781 10.515625 -12.613281 10.648438 -12.375 C 10.753906 -12.191406 10.835938 -11.949219 10.914062 -11.710938 C 10.996094 -11.472656 11.074219 -11.234375 11.128906 -10.996094 C 11.179688 -10.753906 11.234375 -10.515625 11.285156 -10.277344 C 11.3125 -10.011719 11.339844 -9.773438 11.367188 -9.535156 C 11.394531 -9.269531 11.445312 -9.03125 11.472656 -8.789062 C 11.472656 -8.523438 11.445312 -8.285156 11.445312 -8.046875 C 11.445312 -7.78125 11.445312 -7.542969 11.417969 -7.277344 C 11.394531 -7.039062 11.339844 -6.796875 11.285156 -6.53125 C 11.234375 -6.292969 11.179688 -6.054688 11.128906 -5.816406 C 11.046875 -5.578125 10.96875 -5.339844 10.863281 -5.097656 C 10.78125 -4.859375 10.675781 -4.648438 10.570312 -4.460938 C 10.464844 -4.25 10.332031 -4.035156 10.199219 -3.878906 C 10.039062 -3.691406 9.878906 -3.503906 9.695312 -3.371094 C 9.507812 -3.214844 9.296875 -3.132812 9.082031 -3.027344 C 8.871094 -2.921875 8.632812 -2.921875 8.390625 -2.894531 C 8.179688 -2.839844 7.941406 -2.789062 7.703125 -2.816406 C 7.460938 -2.839844 7.222656 -2.867188 7.011719 -2.949219 C 6.773438 -3 6.53125 -3.105469 6.347656 -3.214844 C 6.136719 -3.320312 5.949219 -3.480469 5.789062 -3.636719 C 5.605469 -3.796875 5.445312 -3.984375 5.3125 -4.195312 C 5.179688 -4.382812 5.097656 -4.621094 5.019531 -4.832031 C 4.914062 -5.046875 4.859375 -5.285156 4.78125 -5.523438 C 4.699219 -5.738281 4.621094 -5.976562 4.566406 -6.1875 C 4.515625 -6.425781 4.488281 -6.664062 4.433594 -6.90625 C 4.410156 -7.144531 4.328125 -7.382812 4.300781 -7.59375 C 4.25 -7.835938 4.222656 -8.074219 4.167969 -8.3125 C 4.195312 -8.523438 4.222656 -8.765625 4.25 -8.976562 Z M 4.25 -8.976562" transform="translate(234.41 236.985)"/></g></g></g><g fill="#D5FFF3"><g><g><path d="M 5.125 -9.773438 C 5.230469 -9.773438 5.417969 -9.507812 5.628906 -9.164062 C 5.738281 -8.976562 5.921875 -8.765625 6.054688 -8.523438 C 6.1875 -8.3125 6.292969 -8.074219 6.398438 -7.835938 C 6.53125 -7.59375 6.613281 -7.328125 6.71875 -7.144531 C 6.851562 -6.929688 7.011719 -6.746094 7.144531 -6.53125 C 7.25 -6.320312 7.382812 -6.109375 7.515625 -5.894531 C 7.648438 -5.710938 7.726562 -5.472656 7.859375 -5.285156 C 7.992188 -5.074219 8.207031 -4.914062 8.3125 -4.699219 C 8.445312 -4.488281 8.605469 -4.300781 8.738281 -4.089844 C 8.871094 -3.902344 8.976562 -3.691406 9.109375 -3.480469 C 9.269531 -3.265625 9.402344 -3.082031 9.535156 -2.867188 C 9.667969 -2.65625 9.746094 -2.441406 9.878906 -2.230469 C 10.011719 -2.019531 10.171875 -1.832031 10.304688 -1.621094 C 10.4375 -1.40625 10.542969 -1.167969 10.675781 -0.957031 C 10.835938 -0.769531 11.019531 -0.585938 11.207031 -0.425781 C 11.394531 -0.292969 11.605469 -0.160156 11.84375 -0.078125 C 12.082031 0 12.324219 0 12.613281 0 C 12.90625 0 13.121094 0 13.277344 -0.0273438 C 13.570312 -0.105469 13.652344 -0.265625 13.703125 -0.503906 C 13.730469 -0.691406 13.730469 -0.902344 13.757812 -1.195312 C 13.757812 -1.433594 13.730469 -1.671875 13.757812 -1.914062 C 13.757812 -2.152344 13.808594 -2.390625 13.835938 -2.628906 C 13.835938 -2.867188 13.785156 -3.105469 13.785156 -3.347656 C 13.785156 -3.585938 13.808594 -3.824219 13.808594 -4.0625 C 13.808594 -4.300781 13.863281 -4.542969 13.863281 -4.78125 C 13.863281 -5.019531 13.808594 -5.257812 13.835938 -5.523438 C 13.835938 -5.761719 13.890625 -6.003906 13.890625 -6.242188 C 13.890625 -6.480469 13.917969 -6.71875 13.917969 -6.957031 C 13.917969 -7.195312 13.863281 -7.4375 13.863281 -7.675781 C 13.863281 -7.914062 13.941406 -8.152344 13.941406 -8.390625 C 13.941406 -8.65625 13.941406 -8.898438 13.941406 -9.136719 C 13.96875 -9.375 13.917969 -9.613281 13.917969 -9.851562 C 13.917969 -10.09375 13.917969 -10.332031 13.917969 -10.570312 C 13.917969 -10.808594 13.96875 -11.046875 13.96875 -11.285156 C 13.96875 -11.527344 13.996094 -11.765625 13.996094 -11.976562 C 13.996094 -12.242188 13.941406 -12.480469 13.941406 -12.695312 C 13.941406 -12.960938 14.023438 -13.199219 14.023438 -13.4375 C 14.023438 -13.675781 13.996094 -13.917969 13.996094 -14.15625 C 13.996094 -14.394531 13.996094 -14.632812 13.996094 -14.871094 C 13.996094 -15.136719 14.050781 -15.351562 14.023438 -15.5625 C 13.996094 -15.828125 13.96875 -16.066406 13.890625 -16.253906 C 13.785156 -16.492188 13.625 -16.652344 13.386719 -16.730469 C 13.199219 -16.8125 12.960938 -16.757812 12.695312 -16.757812 C 12.480469 -16.730469 12.242188 -16.730469 11.976562 -16.679688 C 11.792969 -16.652344 11.578125 -16.546875 11.339844 -16.464844 C 11.339844 -16.253906 11.285156 -16.066406 11.285156 -15.800781 C 11.261719 -15.589844 11.285156 -15.351562 11.285156 -15.109375 C 11.285156 -14.871094 11.234375 -14.632812 11.234375 -14.394531 C 11.234375 -14.15625 11.285156 -13.917969 11.285156 -13.675781 C 11.285156 -13.464844 11.234375 -13.226562 11.234375 -12.988281 C 11.234375 -12.746094 11.261719 -12.507812 11.261719 -12.269531 C 11.261719 -12.03125 11.179688 -11.792969 11.179688 -11.550781 C 11.179688 -11.339844 11.261719 -11.101562 11.261719 -10.863281 C 11.261719 -10.621094 11.207031 -10.382812 11.207031 -10.144531 C 11.207031 -9.90625 11.179688 -9.667969 11.179688 -9.453125 C 11.179688 -9.214844 11.207031 -8.976562 11.207031 -8.738281 C 11.207031 -8.5 11.179688 -8.257812 11.179688 -8.046875 C 11.152344 -7.78125 11.128906 -7.542969 11.128906 -7.355469 C 11.101562 -6.90625 11.101562 -6.640625 11.074219 -6.664062 C 10.835938 -6.691406 10.648438 -6.929688 10.464844 -7.195312 C 10.304688 -7.460938 10.171875 -7.78125 10.066406 -7.941406 C 9.933594 -8.125 9.746094 -8.3125 9.640625 -8.5 C 9.507812 -8.710938 9.375 -8.921875 9.242188 -9.136719 C 9.109375 -9.320312 9.054688 -9.5625 8.921875 -9.773438 C 8.789062 -9.984375 8.605469 -10.144531 8.472656 -10.359375 C 8.367188 -10.570312 8.234375 -10.753906 8.101562 -10.96875 C 7.96875 -11.179688 7.859375 -11.394531 7.726562 -11.605469 C 7.59375 -11.816406 7.488281 -12.03125 7.382812 -12.242188 C 7.25 -12.429688 7.117188 -12.640625 6.984375 -12.855469 C 6.851562 -13.066406 6.773438 -13.277344 6.640625 -13.492188 C 6.53125 -13.703125 6.347656 -13.863281 6.214844 -14.074219 C 6.082031 -14.261719 6.003906 -14.5 5.871094 -14.6875 C 5.738281 -14.898438 5.578125 -15.085938 5.445312 -15.296875 C 5.339844 -15.507812 5.207031 -15.722656 5.097656 -15.90625 C 4.941406 -16.199219 4.808594 -16.359375 4.648438 -16.519531 C 4.460938 -16.679688 4.277344 -16.730469 3.984375 -16.757812 C 3.796875 -16.785156 3.53125 -16.785156 3.238281 -16.757812 C 2.816406 -16.785156 2.574219 -16.785156 2.417969 -16.785156 C 2.097656 -16.757812 2.070312 -16.652344 2.070312 -16.171875 C 2.070312 -15.933594 2.125 -15.695312 2.125 -15.457031 C 2.125 -15.21875 2.125 -14.976562 2.125 -14.738281 C 2.125 -14.5 2.046875 -14.261719 2.046875 -14.023438 C 2.046875 -13.785156 2.070312 -13.542969 2.070312 -13.304688 C 2.070312 -13.066406 2.046875 -12.828125 2.070312 -12.589844 C 2.070312 -12.347656 2.097656 -12.109375 2.097656 -11.871094 C 2.097656 -11.632812 2.125 -11.394531 2.125 -11.152344 C 2.125 -10.914062 2.097656 -10.675781 2.097656 -10.4375 C 2.097656 -10.199219 2.046875 -9.960938 2.046875 -9.746094 C 2.070312 -9.507812 2.125 -9.269531 2.125 -9.03125 C 2.125 -8.789062 2.152344 -8.550781 2.152344 -8.3125 C 2.152344 -8.074219 2.125 -7.835938 2.125 -7.59375 C 2.125 -7.355469 2.125 -7.117188 2.125 -6.878906 C 2.125 -6.664062 2.152344 -6.398438 2.152344 -6.160156 C 2.152344 -5.921875 2.125 -5.683594 2.125 -5.417969 C 2.125 -5.179688 2.125 -4.941406 2.125 -4.675781 C 2.125 -4.433594 2.070312 -4.195312 2.070312 -3.929688 C 2.070312 -3.691406 2.125 -3.453125 2.125 -3.214844 C 2.125 -2.949219 2.097656 -2.707031 2.070312 -2.46875 C 2.070312 -2.230469 2.097656 -1.964844 2.097656 -1.726562 C 2.097656 -1.488281 2.070312 -1.222656 2.070312 -1.007812 C 2.070312 -0.691406 2.125 -0.476562 2.230469 -0.320312 C 2.335938 -0.132812 2.523438 0 2.789062 0.0546875 C 2.972656 0.105469 3.214844 0.132812 3.480469 0.132812 C 3.769531 0.132812 4.011719 0.105469 4.222656 0.0546875 C 4.488281 0 4.699219 -0.105469 4.832031 -0.320312 C 4.941406 -0.476562 4.964844 -0.71875 4.992188 -1.007812 C 4.992188 -1.195312 4.992188 -1.433594 4.964844 -1.671875 C 4.964844 -1.914062 4.964844 -2.125 4.964844 -2.363281 C 4.941406 -2.601562 4.941406 -2.839844 4.941406 -3.027344 C 4.941406 -3.292969 4.941406 -3.558594 4.941406 -3.796875 C 4.914062 -4.0625 4.914062 -4.300781 4.914062 -4.542969 C 4.914062 -4.808594 4.914062 -5.074219 4.914062 -5.3125 C 4.914062 -5.578125 4.941406 -5.816406 4.941406 -6.082031 C 4.941406 -6.320312 4.992188 -6.585938 4.992188 -6.824219 C 4.992188 -7.089844 4.941406 -7.328125 4.941406 -7.59375 C 4.941406 -7.835938 4.941406 -8.101562 4.941406 -8.367188 C 4.941406 -8.605469 4.941406 -8.84375 4.914062 -9.136719 C 4.941406 -9.429688 4.832031 -9.828125 5.125 -9.773438 Z M 5.125 -9.773438" transform="translate(253.875 236.985)"/></g></g></g></svg>